<?xml version="1.0"?>
<svg width="200" height="87" xmlns="http://www.w3.org/2000/svg" xmlns:svg="http://www.w3.org/2000/svg">
 <defs>
  <clipPath id="clip0">
   <rect fill="white" height="34.63" id="svg_1" transform="translate(154.742 46.4578)" width="45.16"/>
  </clipPath>
 </defs>
 <g class="layer">
  <title>Layer 1</title>
  <path d="m39.9,33.53c-0.73,0.96 -1.81,1.41 -2.73,2.09c-0.86,0.62 -1.86,0.95 -2.89,1.14c-2.51,0.43 -4.88,0.03 -7.1,-1.23c-0.52,-0.3 -0.91,-0.69 -1.24,-1.18c-1.71,-2.5 -2.14,-5.29 -1.95,-8.24c0.09,-1.51 0.37,-2.98 0.91,-4.4c0.65,-1.68 1.82,-2.9 3.34,-3.79c1.78,-1.03 3.71,-1.7 5.72,-2.1c1.15,-0.23 2.33,-0.11 3.5,-0.01c0.7,0.06 1.39,0.15 2.05,0.42c0.17,0.07 0.23,-0.01 0.23,-0.17c0,-0.3 -0.02,-0.6 0.05,-0.9c0.12,-0.55 0.39,-0.8 0.95,-0.89c0.87,-0.14 1.76,-0.08 2.64,-0.06c0.48,0.01 0.77,0.33 0.94,0.75c0.2,0.49 0.31,1 0.31,1.54c-0.01,3.37 -0.03,6.75 0,10.12c0.02,1.78 0.14,3.56 0.21,5.33c0.01,0.16 0.02,0.34 0.09,0.47c0.18,0.37 0.13,0.71 0.05,1.1c-0.17,0.79 -0.72,1.06 -1.4,1.22c-0.62,0.14 -1.25,0.12 -1.86,0.3c-0.76,0.23 -1.72,-0.5 -1.69,-1.2c0,-0.09 -0.01,-0.19 -0.13,-0.31zm-1.15,-8.55c0,-1.18 -0.01,-2.21 0.01,-3.24c0.01,-0.3 -0.09,-0.48 -0.34,-0.65c-0.68,-0.45 -1.45,-0.63 -2.24,-0.7c-0.76,-0.08 -1.53,-0.08 -2.27,0.21c-1.68,0.67 -3.16,1.61 -4.33,3c-0.3,0.36 -0.61,0.7 -0.76,1.14c-0.53,1.55 -0.51,3.12 -0.05,4.67c0.34,1.1 1.05,1.94 2.17,2.27c1.05,0.32 2.17,0.39 3.24,0.2c1.98,-0.36 3.39,-1.58 4.35,-3.32c0.11,-0.19 0.16,-0.39 0.15,-0.6c-0.05,-1.04 0.11,-2.08 0.07,-2.98z" fill="#121212" id="svg_2"/>
  <path d="m7.55,77.79c0.17,1.72 0.11,3.44 0.12,5.15c0,0.24 -0.03,0.48 -0.11,0.71c-0.17,0.44 -0.44,0.73 -0.96,0.8c-1.31,0.18 -2.61,0.11 -3.92,0.03c-0.19,-0.01 -0.31,-0.09 -0.39,-0.27c-0.15,-0.3 -0.22,-0.63 -0.26,-0.96c-0.17,-1.17 -0.31,-2.34 -0.29,-3.53c0.03,-2.66 0,-5.34 -0.31,-7.98c-0.33,-2.75 -0.36,-5.5 -0.5,-8.25c-0.17,-3.44 -0.2,-6.89 -0.12,-10.34c0.02,-0.71 -0.01,-1.42 0.05,-2.13c0.06,-0.78 0.4,-1.3 1.16,-1.57c1.37,-0.49 2.74,-0.52 4.11,-0.08c0.83,0.28 1.04,0.66 1.05,1.54c0,0.6 0,0.6 0.56,0.42c0.7,-0.22 1.44,-0.28 2.17,-0.33c0.8,-0.07 1.6,-0.08 2.4,-0.02c0.83,0.05 1.61,0.37 2.42,0.53c1.74,0.37 3.36,1.08 4.92,1.91c1.23,0.66 2,1.76 2.62,2.97c0.1,0.21 0.17,0.43 0.28,0.63c0.49,0.9 0.77,1.86 0.87,2.88c0.11,1.08 0.09,2.16 0.05,3.24c-0.01,0.42 -0.16,0.81 -0.3,1.2c-0.37,1.02 -0.5,2.14 -1.12,3.06c-0.61,0.93 -1.25,1.84 -1.92,2.72c-0.49,0.63 -1.22,0.94 -1.93,1.23c-1.12,0.47 -2.29,0.83 -3.47,1.1c-2.34,0.52 -4.69,0.42 -7.02,-0.14c-0.18,-0.05 -0.32,-0.12 -0.31,0.19c0.06,1.77 0.16,3.54 0.15,5.29zm0.58,-17.36c-0.03,0.82 0.05,1.8 0.09,2.77c0.03,0.76 0.07,1.54 0.28,2.29c0.2,0.7 0.7,1.1 1.42,1.11c0.51,0.01 1.01,0.05 1.51,0.08c1.7,0.12 3.38,0.13 4.9,-0.83c0.56,-0.36 1.12,-0.69 1.31,-1.38c0.25,-0.92 0.53,-1.83 0.45,-2.81c-0.08,-1.06 -0.35,-2.02 -1.09,-2.83c-0.53,-0.57 -1.06,-1.14 -1.68,-1.62c-0.94,-0.72 -1.95,-1.26 -3.2,-1.07c-0.16,0.02 -0.34,0.01 -0.51,0.02c-1.08,0.06 -2.14,0.27 -3.15,0.67c-0.25,0.09 -0.34,0.24 -0.34,0.52c0.02,0.97 0.01,1.95 0.01,3.08z" fill="#121212" id="svg_3"/>
  <path d="m26.41,57.75c0,-2.23 0,-4.46 0,-6.68c0,-0.16 -0.04,-0.32 -0.06,-0.48c-0.07,-0.49 0.5,-1.62 0.93,-1.85c0.18,-0.09 0.38,-0.11 0.57,-0.12c2.56,-0.12 5.11,-0.17 7.67,-0.21c0.61,-0.01 1.16,0.12 1.68,0.42c0.35,0.2 0.72,0.35 1.09,0.5c0.68,0.28 1.23,0.75 1.71,1.32c0.83,0.99 1.47,2.08 1.83,3.32c0.11,0.39 0.06,0.8 0.05,1.2c-0.03,1.21 -0.11,2.41 -0.31,3.6c-0.2,1.14 -0.84,2.04 -1.57,2.9c-0.21,0.24 -0.44,0.47 -0.68,0.68c-0.16,0.15 -0.18,0.26 -0.07,0.46c0.67,1.33 1.75,2.26 2.98,3.02c1.36,0.84 2.73,1.66 4.21,2.27c1.09,0.46 2.23,0.68 3.41,0.72c0.16,0 0.29,-0.06 0.43,-0.12c0.48,-0.19 0.96,-0.05 1.11,0.43c0.34,1.01 0.42,2.07 0.23,3.12c-0.09,0.52 -0.47,0.81 -1.04,0.83c-2.05,0.08 -4.08,0.09 -6.12,-0.37c-1.19,-0.27 -2.14,-0.86 -3.08,-1.5c-1.2,-0.81 -2.35,-1.69 -3.49,-2.59c-1.41,-1.11 -2.6,-2.45 -3.77,-3.8c-0.11,-0.12 -0.22,-0.24 -0.32,-0.36c-0.4,-0.5 -0.9,-0.74 -1.56,-0.71c-0.89,0.05 -0.76,-0.1 -0.77,0.77c-0.01,0.95 0,1.89 0.15,2.82c0.04,0.29 0.04,0.6 0.04,0.9c-0.02,0.77 -0.41,1.2 -1.17,1.26c-0.94,0.09 -1.88,0.05 -2.82,-0.05c-0.57,-0.06 -0.97,-0.54 -1,-1.13c-0.03,-0.91 -0.03,-1.82 -0.11,-2.72c-0.2,-2.3 -0.08,-4.59 -0.17,-6.89c-0.02,-0.32 -0.01,-0.64 -0.01,-0.96c0.02,0 0.02,0 0.03,0zm4.51,-0.63c-0.07,0.63 -0.05,1.34 0.07,2.05c0.04,0.24 0.13,0.33 0.37,0.32c1.16,-0.08 2.31,0.12 3.46,-0.06c0.78,-0.12 1.53,-0.31 2.06,-0.98c0.27,-0.34 0.39,-0.78 0.72,-1.08c0.05,-0.04 0.06,-0.15 0.07,-0.22c0.14,-0.89 -0.1,-1.64 -0.75,-2.29c-1.56,-1.58 -3.5,-1.75 -5.55,-1.52c-0.16,0.02 -0.24,0.09 -0.25,0.26c-0.03,1.15 -0.21,2.29 -0.2,3.52z" fill="#121212" id="svg_4"/>
  <path d="m45.32,58.15c0.03,-2.13 0.44,-4.24 1.41,-6.22c0.07,-0.13 0.12,-0.28 0.22,-0.39c0.75,-0.92 1.45,-1.88 2.49,-2.52c0.66,-0.39 1.27,-0.85 1.95,-1.21c1.05,-0.56 2.14,-0.9 3.31,-0.97c1.44,-0.1 2.88,-0.11 4.28,0.39c0.42,0.15 0.81,0.33 1.16,0.59c2.17,1.6 3.5,3.74 4.09,6.37c0.23,1 0.51,2 0.48,3.05c-0.02,0.68 -0.23,0.99 -0.91,1.12c-1.05,0.2 -2.12,0.27 -3.17,0.38c-1.54,0.17 -3.1,0.14 -4.61,0.5c-1.12,0.26 -2.28,0.28 -3.41,0.4c-0.6,0.07 -1.19,0.15 -1.78,0.23c-0.11,0.02 -0.29,-0.01 -0.23,0.2c0.27,0.86 0.5,1.74 1.09,2.47c0.38,0.47 0.83,0.81 1.38,1.04c0.95,0.4 1.95,0.64 2.96,0.5c0.74,-0.11 1.52,-0.27 2.12,-0.85c0.61,-0.61 1.39,-1.01 2.04,-1.57c0.24,-0.21 0.6,-0.2 0.92,-0.21c0.9,-0.03 1.79,0.02 2.68,-0.07c0.71,-0.07 0.95,0.41 0.78,1.09c-0.33,1.25 -1.15,2.11 -2.07,2.92c-1.1,0.95 -2.12,1.99 -3.51,2.56c-1.73,0.71 -3.53,0.96 -5.38,0.86c-0.68,-0.04 -1.28,-0.35 -1.85,-0.69c-0.37,-0.22 -0.75,-0.41 -1.13,-0.59c-1.51,-0.75 -2.62,-1.94 -3.55,-3.32c-0.93,-1.38 -1.31,-2.97 -1.7,-4.55c-0.12,-0.47 -0.03,-0.96 -0.06,-1.51zm6,-2.61c0.31,0.04 0.61,0.03 0.92,-0.02c1.04,-0.17 2.09,-0.33 3.14,-0.4c1.67,-0.1 3.33,-0.29 4.98,-0.55c0.16,-0.03 0.19,-0.07 0.14,-0.22c-0.6,-1.57 -2.51,-3.07 -4.05,-2.95c-0.39,0.03 -0.78,0.03 -1.17,0.05c-1.59,0.04 -2.87,0.71 -3.87,1.92c-0.43,0.53 -0.8,1.1 -0.97,1.77c-0.07,0.25 -0.04,0.43 0.29,0.4c0.2,-0.02 0.39,0 0.59,0z" fill="#121212" id="svg_5"/>
  <path d="m5.78,24.16c0,0.08 -0.02,0.16 -0.02,0.23c0.03,2.98 -0.07,5.96 0.08,8.93c0.1,2.1 0.34,4.19 0.26,6.3c0,0.21 -0.02,0.41 0,0.62c0.11,1.13 -0.97,1.94 -1.91,1.94c-0.96,0.01 -1.92,-0.09 -2.88,-0.03c-0.54,0.03 -0.85,-0.34 -0.89,-0.89c-0.23,-3.37 -0.17,-6.75 -0.12,-10.12c0.02,-2.09 0.25,-4.17 0.27,-6.27c0.02,-2.63 -0.05,-5.26 0.06,-7.89c0.05,-1.34 0.14,-2.68 0.23,-4.02c0.03,-0.39 0.13,-0.77 0.2,-1.15c0.02,-0.1 0.05,-0.18 0.13,-0.24c0.42,-0.27 0.83,-0.59 1.37,-0.58c0.71,0 1.42,0.02 2.13,0.03c0.34,0 0.57,0.18 0.72,0.45c0.49,0.88 1.11,1.66 1.68,2.48c1,1.43 1.8,2.98 2.64,4.51c1.4,2.55 2.73,5.13 4.06,7.72c0.68,1.3 1.47,2.54 2.11,3.87c0.03,0.06 0.07,0.11 0.11,0.16c0.09,-0.02 0.07,-0.08 0.07,-0.14c-0.14,-3.69 -0.07,-7.39 -0.04,-11.09c0.01,-1.8 -0.16,-3.58 -0.26,-5.37c-0.06,-1.1 -0.05,-2.21 -0.03,-3.31c0.01,-0.79 0.44,-1.2 1.19,-1.41c1.18,-0.32 2.35,-0.05 3.52,-0.06c0.64,0 0.74,0.15 0.86,0.77c0.22,1.13 0.38,2.26 0.27,3.42c-0.09,0.87 0,1.75 0.01,2.62c0.05,4.68 -0.01,9.36 0.01,14.03c0.02,2.37 0.1,4.73 0.06,7.1c-0.03,1.62 -0.17,3.23 -0.48,4.83c-0.06,0.31 -0.21,0.43 -0.51,0.5c-1.14,0.27 -2.3,0.29 -3.46,0.2c-0.94,-0.07 -1.63,-0.47 -1.99,-1.38c-0.84,-2.13 -2.02,-4.09 -3.14,-6.08c-1.83,-3.27 -3.62,-6.55 -5.64,-9.71c-0.21,-0.32 -0.39,-0.66 -0.59,-0.99c-0.02,0 -0.05,0.01 -0.08,0.02z" fill="#121212" id="svg_6"/>
  <path d="m70.14,25.09c0,-3.24 0,-6.48 0.01,-9.72c0,-0.35 -0.11,-0.43 -0.43,-0.41c-0.96,0.05 -1.92,-0.06 -2.89,-0.12c-1,-0.05 -1.47,-0.52 -1.56,-1.52c-0.07,-0.79 -0.17,-1.58 -0.16,-2.37c0.02,-0.91 0.34,-1.31 1.22,-1.47c1.27,-0.23 2.47,-0.7 3.72,-0.98c0.23,-0.05 0.21,-0.21 0.2,-0.37c-0.01,-1.86 -0.04,-3.72 -0.02,-5.58c0.01,-0.78 0.25,-1.49 1.08,-1.84c0.46,-0.19 0.91,-0.41 1.43,-0.47c0.85,-0.08 1.69,-0.27 2.56,-0.23c0.59,0.02 1.07,0.47 1.06,1.07c-0.04,1.66 0,3.31 -0.16,4.96c-0.04,0.48 -0.01,0.97 -0.03,1.45c0,0.2 0.07,0.26 0.27,0.22c1.26,-0.2 2.53,-0.26 3.8,-0.34c0.28,-0.02 0.56,-0.11 0.84,-0.17c0.17,-0.03 0.33,-0.08 0.5,-0.12c0.67,-0.15 1.18,0.01 1.6,0.62c0.39,0.56 0.62,1.14 0.61,1.82c-0.01,0.58 0.03,1.17 -0.02,1.75c-0.04,0.48 -0.3,0.78 -0.74,0.95c-0.05,0.02 -0.1,0.04 -0.16,0.05c-1.92,0.24 -3.7,1.03 -5.59,1.41c-0.23,0.04 -0.45,0.11 -0.68,0.13c-0.29,0.02 -0.36,0.16 -0.36,0.44c-0.01,2.65 0.02,5.29 -0.08,7.93c-0.06,1.66 0.08,3.31 -0.01,4.96c-0.07,1.16 0.07,2.32 0.01,3.47c-0.04,0.76 0.05,1.51 0.08,2.26c0.02,0.35 0.13,0.7 0.01,1.05c-0.03,0.09 0,0.21 0.04,0.3c0.56,1.22 1.31,2.27 2.53,2.91c0.14,0.07 0.29,0.14 0.45,0.17c0.55,0.1 0.88,0.47 1.14,0.91c0.22,0.37 0.15,0.8 0.08,1.18c-0.15,0.81 -0.19,1.64 -0.45,2.43c-0.26,0.78 -0.66,1.15 -1.48,1.17c-0.6,0.03 -1.18,-0.12 -1.77,-0.18c-0.54,-0.06 -1.06,-0.18 -1.5,-0.46c-0.85,-0.53 -1.74,-0.99 -2.49,-1.7c-0.82,-0.77 -1.33,-1.69 -1.69,-2.72c-0.15,-0.42 -0.28,-0.85 -0.43,-1.27c-0.3,-0.89 -0.44,-1.8 -0.41,-2.74c0.07,-2.95 -0.14,-5.89 -0.13,-8.83z" fill="#121212" id="svg_7"/>
  <path d="m66.59,27.56c-0.08,1.61 0.03,3.21 0.07,4.82c0.02,0.61 -0.01,1.22 -0.14,1.82c-0.17,0.76 -0.69,1.29 -1.4,1.45c-1,0.22 -2.02,0.42 -3.06,0.39c-0.96,-0.04 -1.55,-0.69 -1.55,-1.63c0.02,-1.55 -0.03,-3.1 -0.02,-4.65c0.01,-1.34 0.2,-2.68 0.09,-4.02c-0.06,-0.72 -0.03,-1.45 -0.26,-2.15c-0.44,-1.34 -1.33,-1.97 -2.75,-1.7c-0.19,0.03 -0.33,0.12 -0.48,0.24c-0.81,0.67 -1.22,1.56 -1.47,2.55c-0.24,1.01 -0.33,2.03 -0.39,3.07c-0.12,2.11 -0.34,4.21 -0.52,6.31c-0.03,0.31 -0.04,0.62 -0.04,0.93c0.01,0.48 -0.21,0.78 -0.63,1.01c-0.76,0.42 -1.6,0.46 -2.43,0.56c-0.23,0.02 -0.46,0.03 -0.68,0.05c-0.76,0.06 -1.39,-0.47 -1.33,-1.23c0.17,-2.16 0.12,-4.34 0.32,-6.49c0.14,-1.6 0.04,-3.19 0.09,-4.78c0.02,-0.39 -0.03,-0.78 0.01,-1.17c0.09,-0.9 -0.18,-1.69 -0.58,-2.47c-0.28,-0.53 -0.66,-0.87 -1.23,-1.01c-0.38,-0.1 -0.73,-0.27 -1.08,-0.45c-0.2,-0.11 -0.33,-0.26 -0.3,-0.52c0.14,-1.01 0.25,-2.03 0.39,-3.04c0.08,-0.6 0.6,-1.04 1.2,-1.07c1.01,-0.06 1.98,0.18 2.94,0.45c0.31,0.09 0.58,0.28 0.82,0.5c0.53,0.5 1.06,1.02 1.43,1.66c0.15,0.26 0.25,0.25 0.46,0.06c0.48,-0.43 1,-0.8 1.54,-1.16c0.24,-0.16 0.51,-0.27 0.79,-0.31c1.54,-0.22 3.07,-0.4 4.6,0.08c1.4,0.44 2.68,1.1 3.56,2.32c0.38,0.52 0.73,1.06 1.08,1.59c0.38,0.58 0.47,1.26 0.59,1.93c0.33,2.01 0.51,4.02 0.36,6.06z" fill="#121212" id="svg_8"/>
  <path d="m152.8,62.98c-0.11,1.8 0,3.57 0.04,5.34c0.02,0.66 -0.01,1.33 -0.16,1.98c-0.18,0.83 -0.76,1.39 -1.52,1.57c-1.09,0.25 -2.2,0.46 -3.34,0.43c-0.66,-0.02 -1.12,-0.35 -1.52,-0.81c-0.14,-0.16 -0.19,-0.36 -0.19,-0.58c0.03,-2.25 -0.12,-4.5 0.02,-6.74c0.09,-1.43 0.09,-2.85 -0.01,-4.27c-0.06,-0.83 -0.27,-1.6 -0.76,-2.29c-0.36,-0.5 -0.89,-0.75 -1.49,-0.83c-0.7,-0.08 -1.31,0.06 -1.83,0.62c-0.67,0.7 -1.04,1.54 -1.26,2.44c-0.28,1.07 -0.36,2.17 -0.43,3.28c-0.14,2.1 -0.32,4.21 -0.54,6.31c-0.06,0.59 -0.07,1.19 -0.09,1.79c-0.01,0.45 -0.22,0.76 -0.61,0.99c-0.88,0.51 -1.86,0.55 -2.83,0.66c-0.22,0.02 -0.43,0.03 -0.65,0.05c-0.83,0.08 -1.52,-0.51 -1.46,-1.35c0.13,-1.99 0.13,-3.99 0.29,-5.98c0.23,-2.83 0.14,-5.67 0.15,-8.5c0.01,-0.92 -0.5,-1.71 -1.04,-2.42c-0.27,-0.36 -0.73,-0.46 -1.15,-0.58c-0.37,-0.1 -0.7,-0.28 -1.03,-0.47c-0.19,-0.11 -0.27,-0.26 -0.24,-0.48c0.14,-1.13 0.27,-2.26 0.42,-3.39c0.07,-0.52 0.57,-1.06 1.08,-1.1c1.43,-0.1 2.84,0.05 4.08,0.82c0.76,0.47 1.34,1.21 1.82,1.99c0.16,0.25 0.24,0.29 0.5,0.09c0.77,-0.61 1.47,-1.39 2.47,-1.59c2.92,-0.59 5.69,-0.35 8.11,1.61c0.54,0.44 1.02,0.96 1.31,1.61c0.05,0.13 0.12,0.26 0.22,0.35c0.7,0.7 1.03,1.57 1.15,2.52c0.21,1.69 0.58,3.35 0.49,5.07c-0.03,0.63 0,1.27 0,1.86z" fill="#121212" id="svg_9"/>
  <path d="m181.13,37.11c-1.04,-0.09 -2.1,-0.15 -3.01,-0.71c-0.74,-0.46 -1.28,-1.14 -1.75,-1.87c-0.17,-0.28 -0.28,-0.28 -0.51,-0.07c-0.45,0.42 -0.97,0.77 -1.48,1.12c-0.25,0.17 -0.53,0.29 -0.82,0.33c-1.97,0.32 -3.93,0.39 -5.79,-0.51c-0.92,-0.45 -1.78,-1 -2.37,-1.84c-0.39,-0.57 -0.81,-1.13 -1.17,-1.73c-0.36,-0.61 -0.42,-1.3 -0.55,-1.98c-0.55,-2.68 -0.34,-5.39 -0.33,-8.1c0.01,-0.92 -0.13,-1.83 -0.09,-2.75c0.02,-0.56 0.03,-1.13 0.14,-1.68c0.15,-0.76 0.68,-1.26 1.36,-1.45c0.9,-0.25 1.85,-0.33 2.78,-0.39c0.66,-0.03 1.18,0.52 1.22,1.16c0.18,2.57 0.24,5.16 0.47,7.73c0.08,0.88 0.13,1.76 0.21,2.64c0.08,0.88 0.36,1.69 1.08,2.26c0.55,0.44 1.73,0.56 2.19,0.21c0.52,-0.4 0.95,-0.89 1.22,-1.5c0.41,-0.92 0.62,-1.89 0.69,-2.87c0.18,-2.55 0.4,-5.1 0.63,-7.65c0.04,-0.34 0.03,-0.69 0.04,-1.03c0.01,-0.39 0.19,-0.67 0.53,-0.87c0.81,-0.48 1.72,-0.53 2.62,-0.62c0.19,-0.02 0.38,-0.03 0.58,-0.04c0.78,-0.07 1.41,0.45 1.35,1.23c-0.17,2.16 -0.13,4.34 -0.32,6.49c-0.1,1.11 -0.07,2.2 -0.09,3.3c-0.02,1.07 -0.01,2.14 -0.02,3.2c0,0.94 0.44,1.7 0.95,2.43c0.23,0.34 0.67,0.43 1.05,0.54c0.34,0.1 0.64,0.26 0.94,0.42c0.18,0.1 0.29,0.24 0.26,0.47c-0.13,0.99 -0.23,1.98 -0.37,2.97c-0.11,0.76 -0.6,1.15 -1.37,1.16c-0.09,0 -0.18,0 -0.27,0z" fill="#121212" id="svg_10"/>
  <path d="m78.95,26.99c-0.09,-2.63 0.37,-4.92 1.3,-7.09c0.69,-1.61 1.77,-2.95 3.28,-3.89c0.36,-0.22 0.76,-0.38 1.15,-0.54c0.45,-0.17 0.89,-0.35 1.31,-0.6c0.34,-0.2 0.71,-0.29 1.12,-0.29c1.7,0.03 3.41,-0.02 5.1,0.36c2.03,0.47 3.49,1.64 4.48,3.48c0.93,1.75 0.98,3.63 0.99,5.52c0,0.21 0.02,0.41 0.09,0.61c0.24,0.6 -0.04,1.25 -0.62,1.52c-0.35,0.17 -0.73,0.19 -1.1,0.26c-1.45,0.23 -2.89,0.47 -4.35,0.62c-2.02,0.2 -4.04,0.36 -6.06,0.57c-0.52,0.05 -1.04,0.15 -1.56,0.21c-0.2,0.02 -0.23,0.11 -0.21,0.29c0.12,1.23 0.75,2.15 1.7,2.9c1.34,1.06 2.86,1.47 4.52,1.23c1.04,-0.16 1.87,-0.78 2.48,-1.65c0.28,-0.39 0.54,-0.8 0.8,-1.2c0.34,-0.54 0.87,-0.47 1.38,-0.43c0.69,0.06 1.36,0.18 2.04,0.3c0.77,0.14 1.23,0.86 1,1.61c-0.02,0.07 -0.04,0.14 -0.08,0.19c-0.63,1.11 -1.2,2.25 -2.09,3.18c-0.08,0.08 -0.15,0.15 -0.23,0.21c-2.06,1.57 -4.32,2.48 -6.96,2.19c-0.35,-0.03 -0.69,-0.08 -1.02,-0.17c-1.1,-0.31 -2.26,-0.39 -3.33,-0.83c-0.62,-0.25 -1.19,-0.58 -1.76,-0.92c-1.39,-0.85 -2.23,-2.11 -2.72,-3.6c-0.45,-1.39 -0.81,-2.81 -0.65,-4.04zm4.99,-3.34c-0.02,0 0.02,0 0.05,0c2.51,-0.29 5.03,-0.32 7.54,-0.42c0.7,-0.03 1.4,-0.01 2.09,-0.12c0.17,-0.03 0.35,-0.05 0.27,-0.29c-0.37,-1.16 -0.92,-2.22 -1.97,-2.89c-1.1,-0.7 -2.31,-1.08 -3.63,-0.89c-0.84,0.11 -1.68,0.21 -2.36,0.82c-1.09,0.97 -1.8,2.18 -2.24,3.56c-0.06,0.2 0.03,0.25 0.25,0.23z" fill="#121212" id="svg_11"/>
  <path d="m100.86,36.4c-0.03,-0.83 0,-1.88 0.23,-2.93c0.18,-0.8 0.77,-1.1 1.54,-0.79c1.8,0.72 3.68,1.09 5.61,0.95c1.05,-0.08 1.89,-0.7 2.35,-1.69c0.21,-0.46 0.2,-0.97 -0.14,-1.43c-0.38,-0.52 -0.83,-0.95 -1.4,-1.24c-0.15,-0.08 -0.31,-0.17 -0.44,-0.27c-0.83,-0.58 -1.77,-0.82 -2.75,-1c-1.2,-0.21 -2.36,-0.6 -3.4,-1.25c-0.69,-0.43 -1.21,-1.01 -1.55,-1.75c-0.79,-1.64 -1.23,-3.35 -0.98,-5.17c0.28,-2.05 0.99,-3.88 2.51,-5.42c1.25,-1.27 2.7,-2.03 4.35,-2.56c1.67,-0.54 3.37,-0.72 5.12,-0.61c0.53,0.04 1.07,-0.08 1.61,-0.01c0.88,0.13 1.5,0.92 1.35,1.8c-0.15,0.94 -0.32,1.88 -0.5,2.81c-0.17,0.86 -0.91,1.22 -1.69,0.82c-0.32,-0.16 -0.64,-0.26 -0.98,-0.28c-1.34,-0.11 -2.66,-0.08 -3.94,0.37c-0.95,0.34 -1.74,0.91 -2.39,1.69c-0.18,0.21 -0.26,0.48 -0.34,0.74c-0.2,0.74 -0.22,1.5 -0.08,2.22c0.17,0.84 0.86,1.26 1.63,1.53c0.68,0.25 1.39,0.32 2.1,0.43c0.96,0.15 1.79,0.68 2.71,0.97c1.55,0.48 2.63,1.54 3.63,2.77c1.01,1.26 1.4,2.68 1.36,4.26c-0.01,0.65 0.01,1.31 0.02,1.96c0.02,0.98 -0.3,1.85 -0.86,2.64c-0.37,0.52 -0.64,1.11 -1.08,1.59c-0.76,0.84 -1.72,1.36 -2.79,1.7c-1.93,0.61 -3.9,0.75 -5.9,0.51c-0.46,-0.06 -0.92,-0.08 -1.38,-0.08c-0.79,0 -1.57,-0.1 -2.35,-0.23c-0.18,-0.03 -0.36,-0.09 -0.53,-0.16c-0.44,-0.15 -0.65,-0.48 -0.65,-0.94c0,-0.57 0,-1.15 0,-1.95z" fill="#121212" id="svg_12"/>
  <path d="m67.11,71.74c0.02,-0.56 -0.03,-1.26 0.05,-1.96c0.03,-0.27 0.15,-0.42 0.38,-0.56c0.54,-0.33 1.11,-0.34 1.7,-0.24c1.26,0.22 2.53,0.43 3.82,0.36c0.89,-0.04 1.78,-0.13 2.63,-0.43c0.65,-0.23 1.28,-1.15 1.31,-1.89c0.03,-0.61 -0.11,-1.17 -0.54,-1.64c-0.57,-0.62 -1.18,-1.13 -1.97,-1.46c-0.82,-0.34 -1.67,-0.53 -2.54,-0.71c-1.12,-0.24 -2.21,-0.59 -3.2,-1.2c-0.72,-0.44 -1.26,-1.05 -1.62,-1.82c-0.77,-1.66 -1.21,-3.39 -0.94,-5.21c0.3,-2 0.99,-3.79 2.46,-5.3c1.27,-1.29 2.73,-2.07 4.41,-2.61c1.67,-0.53 3.37,-0.71 5.11,-0.6c0.54,0.04 1.08,-0.08 1.62,0c0.86,0.12 1.47,0.91 1.34,1.78c-0.15,0.94 -0.32,1.88 -0.51,2.81c-0.15,0.79 -0.61,1.03 -1.42,0.95c-1.57,-0.15 -3.15,-0.35 -4.73,0.03c-0.55,0.14 -0.6,0.11 -1.29,0.41c-0.24,0.1 -0.52,0.38 -0.72,0.5c-0.15,0.09 -0.27,0.19 -0.37,0.3c-0.72,0.82 -0.7,1.75 -0.4,2.72c0.21,0.68 0.6,1.26 1.07,1.79c0.38,0.43 0.88,0.67 1.47,0.73c0.64,0.06 1.26,0.2 1.86,0.44c0.52,0.21 1.03,0.46 1.56,0.63c1.55,0.49 2.63,1.55 3.62,2.78c1.02,1.26 1.4,2.68 1.36,4.26c-0.02,0.66 0,1.31 0.01,1.97c0.02,0.98 -0.3,1.85 -0.86,2.63c-0.38,0.54 -0.66,1.13 -1.1,1.62c-0.77,0.82 -1.72,1.33 -2.77,1.66c-1.92,0.61 -3.88,0.75 -5.88,0.51c-0.43,-0.05 -0.86,-0.07 -1.3,-0.07c-0.82,0 -1.62,-0.1 -2.42,-0.23c-0.18,-0.03 -0.36,-0.09 -0.53,-0.15c-0.46,-0.16 -0.67,-0.49 -0.67,-0.97c0.01,-0.57 0,-1.13 0,-1.83z" fill="#121212" id="svg_13"/>
  <path d="m85.27,69.86c-0.02,-0.91 0,-1.81 0.2,-2.71c0.14,-0.67 0.63,-0.94 1.28,-0.69c1.51,0.61 3.09,0.92 4.72,0.84c0.96,-0.05 1.67,-0.59 2.12,-1.45c0.16,-0.31 0.08,-0.63 -0.13,-0.93c-0.68,-0.96 -1.65,-1.53 -2.67,-1.99c-1.89,-0.84 -3.35,-2.17 -4.5,-3.87c-1.16,-1.71 -1.21,-3.53 -0.53,-5.42c0.27,-0.74 0.64,-1.45 1.07,-2.11c0.62,-0.96 1.51,-1.61 2.5,-2.15c0.73,-0.41 1.48,-0.54 2.31,-0.45c0.75,0.08 1.51,0.09 2.26,0.12c0.85,0.03 1.65,0.25 2.44,0.52c0.39,0.13 0.58,0.46 0.61,0.88c0.06,0.79 -0.11,1.53 -0.32,2.27c-0.1,0.34 -0.31,0.64 -0.52,0.92c-0.27,0.36 -0.64,0.48 -1.07,0.32c-0.3,-0.1 -0.6,-0.17 -0.88,-0.3c-0.85,-0.39 -1.71,-0.22 -2.57,-0.09c-0.42,0.06 -0.7,0.4 -0.93,0.72c-0.44,0.61 -0.81,1.27 -0.57,2.1c0.11,0.41 0.33,0.72 0.67,0.96c0.67,0.48 1.33,0.99 2.03,1.41c0.45,0.26 0.97,0.42 1.46,0.58c1.82,0.59 2.93,1.94 3.83,3.51c0.3,0.52 0.4,1.11 0.42,1.7c0.02,0.87 0.03,1.74 0.04,2.61c0.01,0.72 -0.25,1.37 -0.62,1.98c-0.19,0.3 -0.39,0.59 -0.58,0.89c-0.64,1.04 -1.6,1.65 -2.73,2.02c-1.68,0.56 -3.4,0.68 -5.15,0.47c-0.39,-0.05 -0.78,-0.05 -1.17,-0.06c-0.67,0 -1.34,-0.08 -2.01,-0.19c-0.78,-0.14 -1,-0.42 -1.01,-1.21c0,-0.4 0,-0.8 0,-1.2z" fill="#121212" id="svg_14"/>
  <path d="m108.43,64.22c0.13,1.58 0.11,3.4 0.15,5.21c0.02,0.67 0.05,1.33 0.13,1.99c0.04,0.41 0.02,0.81 -0.1,1.2c-0.09,0.31 -0.29,0.53 -0.6,0.59c-1.17,0.2 -2.35,0.35 -3.54,0.19c-0.19,-0.03 -0.38,-0.07 -0.56,-0.14c-0.49,-0.19 -0.73,-0.53 -0.79,-1.08c-0.27,-2.51 -0.16,-5.03 -0.18,-7.54c-0.01,-2.27 -0.01,-4.55 -0.01,-6.82c0,-0.82 0.37,-1.23 1.17,-1.24c1,-0.02 2,-0.01 3.01,0.02c0.66,0.02 1.08,0.5 1.08,1.17c0,2.08 0.08,4.15 0.24,6.45z" fill="#121212" id="svg_15"/>
  <path d="m104.85,48.17c0.44,-0.02 0.97,0.04 1.48,0.22c1.62,0.57 2.36,2.62 1.46,4.09c-0.15,0.26 -0.32,0.51 -0.48,0.75c-0.72,1.13 -1.84,1.39 -3.06,1.37c-0.69,-0.01 -1.25,-0.39 -1.54,-1c-0.38,-0.81 -0.76,-1.64 -0.76,-2.58c0,-1.86 0.97,-2.86 2.9,-2.85z" fill="#121212" id="svg_16"/>
  <path d="m131.58,38.41c-1.14,-0.14 -2.69,-0.07 -4.22,-0.32c-0.25,-0.04 -0.49,-0.11 -0.72,-0.22c-0.25,-0.12 -0.42,-0.32 -0.42,-0.59c0.03,-0.66 -0.26,-1.27 -0.28,-1.93c-0.02,-0.5 -0.05,-1.01 -0.01,-1.51c0.05,-0.73 0.48,-1.1 1.2,-0.96c0.54,0.09 1.05,0.31 1.59,0.44c1.37,0.33 2.75,0.51 4.17,0.25c1.72,-0.31 2.23,-1.83 1.98,-3.23c-0.13,-0.72 -0.75,-1.14 -1.39,-1.44c-0.95,-0.44 -1.98,-0.61 -3.01,-0.82c-1.02,-0.21 -2.01,-0.52 -2.91,-1.09c-0.69,-0.44 -1.15,-1.07 -1.47,-1.81c-0.55,-1.28 -0.89,-2.6 -0.72,-3.99c0.22,-1.83 0.81,-3.48 2.16,-4.87c1.12,-1.16 2.45,-1.83 3.93,-2.33c1.3,-0.44 2.62,-0.55 3.97,-0.5c0.41,0.01 0.81,0.11 1.2,0.24c0.41,0.14 0.64,0.47 0.67,0.9c0.05,0.74 0.08,1.47 -0.04,2.2c-0.12,0.7 -0.53,1.08 -1.22,1.21c-1.07,0.2 -2.15,0.37 -3.18,0.69c-1.16,0.36 -2.15,1.02 -2.66,2.22c-0.13,0.31 -0.16,0.59 0.03,0.88c0.04,0.07 0.08,0.14 0.1,0.22c0.26,1.12 1.14,1.44 2.1,1.57c1.14,0.17 2.25,0.41 3.33,0.81c1.32,0.48 2.38,1.28 3.13,2.5c0.66,1.08 1.26,2.19 1.5,3.45c0.2,1.1 0.15,2.18 -0.37,3.22c-0.43,0.84 -0.76,1.73 -1.39,2.45c-0.88,1 -2.02,1.58 -3.29,1.94c-1.1,0.31 -2.22,0.45 -3.76,0.42z" fill="#121212" id="svg_17"/>
  <path d="m190.89,38.41c-1.13,-0.14 -2.68,-0.07 -4.21,-0.32c-0.25,-0.04 -0.49,-0.11 -0.72,-0.22c-0.23,-0.12 -0.41,-0.31 -0.4,-0.56c0,-0.71 -0.29,-1.37 -0.3,-2.07c0,-0.48 -0.04,-0.96 0.01,-1.44c0.06,-0.68 0.46,-1 1.13,-0.94c0.12,0.01 0.23,0.02 0.34,0.06c0.68,0.23 1.39,0.36 2.09,0.54c0.74,0.2 1.46,0.2 2.2,0.22c0.46,0.01 0.91,-0.05 1.36,-0.15c0.87,-0.17 1.52,-0.88 1.75,-1.74c0.45,-1.66 -0.3,-2.51 -1.78,-3.08c-0.69,-0.26 -1.4,-0.43 -2.13,-0.54c-0.86,-0.13 -1.69,-0.41 -2.5,-0.74c-1.14,-0.45 -1.92,-1.25 -2.37,-2.39c-0.46,-1.15 -0.8,-2.34 -0.68,-3.59c0.18,-1.87 0.72,-3.56 2.07,-5c1.97,-2.11 4.45,-2.81 7.19,-2.97c0.62,-0.04 1.23,0.04 1.84,0.2c0.57,0.15 0.81,0.44 0.85,1.03c0.05,0.74 0.08,1.47 -0.06,2.2c-0.12,0.61 -0.53,1 -1.14,1.12c-1.07,0.21 -2.15,0.37 -3.19,0.68c-1.18,0.37 -2.2,1.02 -2.71,2.25c-0.13,0.29 -0.17,0.57 0.01,0.85c0.05,0.06 0.09,0.14 0.1,0.22c0.27,1.12 1.14,1.46 2.12,1.6c1.13,0.15 2.23,0.39 3.3,0.79c1.36,0.49 2.43,1.32 3.19,2.57c0.66,1.08 1.25,2.18 1.47,3.43c0.19,1.06 0.17,2.09 -0.34,3.09c-0.39,0.79 -0.69,1.63 -1.25,2.33c-0.9,1.13 -2.11,1.76 -3.47,2.15c-1.1,0.32 -2.22,0.45 -3.77,0.42z" fill="#121212" id="svg_18"/>
  <path d="m161.02,25.35c0.17,1.81 -0.09,3.34 -0.55,4.85c-0.25,0.81 -0.73,1.47 -1.31,2.07c-0.98,1 -1.92,2.05 -3.06,2.88c-0.82,0.59 -1.71,1.11 -2.66,1.49c-0.93,0.38 -1.94,0.29 -2.92,0.36c-0.7,0.06 -1.42,0.11 -2.12,-0.08c-0.28,-0.08 -0.54,-0.18 -0.8,-0.31c-1.9,-0.97 -3.61,-2.2 -4.92,-3.9c-0.69,-0.89 -1.05,-1.98 -1.5,-3.01c-0.73,-1.66 -0.73,-3.41 -0.59,-5.17c0.07,-1 0.22,-1.99 0.72,-2.89c0.87,-1.57 1.89,-3.03 3.32,-4.16c0.48,-0.38 1,-0.63 1.57,-0.85c0.59,-0.23 1.14,-0.59 1.71,-0.88c0.91,-0.47 1.87,-0.78 2.92,-0.79c1.25,-0.01 2.5,-0.05 3.73,0.25c1.06,0.26 1.99,0.76 2.75,1.55c0.36,0.38 0.73,0.76 1.16,1.07c0.43,0.32 0.78,0.71 0.88,1.27c0.02,0.11 0.09,0.21 0.16,0.3c1.04,1.39 1.47,2.99 1.51,4.71c0.01,0.49 0,0.98 0,1.24zm-5.42,0.22c0.02,-0.73 0.01,-1.34 -0.12,-1.94c-0.26,-1.2 -0.7,-2.24 -1.88,-2.92c-0.82,-0.48 -1.61,-0.64 -2.53,-0.65c-1.67,0 -2.98,0.62 -3.91,2.01c-0.79,1.18 -1.37,2.38 -1.21,3.9c0.11,1.09 0.18,2.13 0.89,3.02c0.03,0.05 0.06,0.1 0.08,0.15c0.15,0.3 0.37,0.53 0.64,0.71c0.47,0.33 0.94,0.65 1.46,0.9c0.39,0.19 0.79,0.36 1.23,0.41c1.13,0.14 2.17,-0.08 3.14,-0.65c0.81,-0.48 1.45,-1.1 1.7,-2.03c0.28,-0.99 0.68,-1.96 0.51,-2.91z" fill="#121212" id="svg_19"/>
  <path d="m131.31,60.22c0.17,1.74 -0.1,3.24 -0.54,4.71c-0.27,0.91 -0.84,1.62 -1.49,2.27c-0.79,0.79 -1.55,1.6 -2.4,2.32c-0.39,0.32 -0.78,0.64 -1.25,0.84c-0.53,0.23 -0.97,0.62 -1.5,0.85c-0.99,0.44 -2.06,0.38 -3.11,0.46c-0.69,0.05 -1.39,0.1 -2.08,-0.07c-0.34,-0.08 -0.66,-0.21 -0.96,-0.37c-1.84,-0.97 -3.51,-2.16 -4.77,-3.82c-0.67,-0.88 -1.02,-1.95 -1.46,-2.95c-0.71,-1.66 -0.72,-3.39 -0.57,-5.14c0.09,-1.03 0.24,-2.04 0.76,-2.94c0.94,-1.62 2,-3.14 3.56,-4.23c0.37,-0.26 0.77,-0.46 1.2,-0.59c0.45,-0.13 0.83,-0.43 1.24,-0.65c1.19,-0.65 2.43,-1.04 3.81,-1.02c1.09,0.02 2.17,0.03 3.24,0.28c1.03,0.25 1.92,0.74 2.65,1.51c0.35,0.37 0.7,0.72 1.11,1.03c0.43,0.33 0.81,0.7 0.91,1.28c0.02,0.11 0.09,0.21 0.16,0.31c1.03,1.37 1.43,2.95 1.49,4.64c0.01,0.49 0,0.98 0,1.28zm-5.35,0.09c0.07,-1.18 -0.13,-2.26 -0.57,-3.3c-0.19,-0.43 -0.44,-0.78 -0.84,-1.03c-1.91,-1.17 -1.18,-1.01 -3.33,-1.02c-0.04,0 -0.07,0 -0.11,0.01c-1,0.02 -1.88,0.36 -2.64,1.01c-1.03,0.9 -1.53,2.12 -2.03,3.35c-0.02,0.07 -0.02,0.16 -0.02,0.24c0.04,0.87 0.08,1.74 0.12,2.61c0.01,0.19 0.05,0.36 0.15,0.52c0.23,0.36 0.45,0.72 0.65,1.09c0.19,0.34 0.4,0.65 0.74,0.86c0.45,0.28 0.9,0.58 1.38,0.83c0.41,0.23 0.85,0.38 1.33,0.44c1.28,0.14 2.42,-0.22 3.46,-0.96c0.51,-0.37 0.92,-0.84 1.12,-1.45c0.34,-1.05 0.74,-2.1 0.59,-3.2z" fill="#121212" id="svg_20"/>
  <g clip-path="url(#clip0)" id="svg_21">
   <path d="m180.81,76.97l-6.1,-3.13c-0.09,-0.05 -0.2,-0.02 -0.25,0.08l-3.65,6.58c-0.08,0.14 -0.28,0.13 -0.35,-0.01l-2.56,-6.01c-0.25,-0.56 -0.9,-0.82 -1.46,-0.59l-5.75,2.41c-0.13,0.05 -0.28,-0.06 -0.26,-0.21l1.1,-7.48c0.01,-0.08 -0.03,-0.17 -0.12,-0.2l-5.94,-2.36c-0.13,-0.06 -0.16,-0.24 -0.04,-0.33l5.14,-4.06c0.44,-0.35 0.56,-0.97 0.27,-1.46l-3.25,-5.62c-0.08,-0.14 0.03,-0.31 0.19,-0.29l6.26,0.75c0.15,0.02 0.3,-0.09 0.33,-0.24l1.6,-7.58c0.03,-0.16 0.22,-0.21 0.33,-0.09l4.66,5.16c0.21,0.23 0.57,0.24 0.79,0.03l5.03,-4.85c0.11,-0.11 0.3,-0.04 0.32,0.11l1.1,7.68c0.06,0.44 0.47,0.75 0.91,0.69l5.81,-0.76c0.15,-0.02 0.26,0.14 0.2,0.27l-2.78,5.89c-0.25,0.53 -0.13,1.16 0.3,1.57l3.97,3.8c0.11,0.11 0.06,0.29 -0.08,0.33l-4.84,1.38c-0.08,0.02 -0.14,0.09 -0.14,0.18l-0.47,8.2c-0.01,0.14 -0.15,0.22 -0.27,0.16z" fill="#FAC2D5" id="svg_22" transform="matrix(1, 0, 0, 1, 0, 0)"/>
   <path d="m177.93,61.06c-0.21,0.01 -0.25,-0.28 -0.31,-0.52c-0.05,-0.24 -0.08,-0.57 -0.1,-0.73c-0.08,-0.69 -0.09,-1.38 -0.12,-2.08l-0.13,0.19c-0.06,0.09 -0.11,0.18 -0.15,0.27c-0.12,0.22 -0.23,0.45 -0.35,0.67c-0.04,0.07 -0.08,0.14 -0.11,0.2c-0.1,0.17 -0.34,0.17 -0.44,0c-0.03,-0.06 -0.07,-0.13 -0.1,-0.2c-0.11,-0.2 -0.21,-0.4 -0.32,-0.59c-0.05,-0.09 -0.1,-0.18 -0.15,-0.28c-0.05,0.06 -0.03,0.12 -0.03,0.17c0.01,0.8 0.03,1.6 0.04,2.4c0,0.1 0.04,0.2 0.01,0.3c-0.04,0.18 -0.17,0.28 -0.34,0.26c-0.17,-0.02 -0.27,-0.12 -0.26,-0.31c0.01,-1.09 -0.05,-2.18 -0.05,-3.27c0,-0.17 0.02,-0.34 -0.05,-0.51c-0.02,-0.03 -0.02,-0.07 -0.02,-0.1c0.01,-0.02 0.01,-0.03 0.02,-0.05c0.01,-0.01 0.01,-0.03 0.02,-0.04c0.01,0 0.02,-0.01 0.02,-0.02c0.01,-0.01 0.03,-0.03 0.04,-0.04c0.11,-0.08 0.24,-0.1 0.36,-0.02c0.03,0.03 0.08,0.06 0.12,0.08c0.02,0.01 0.04,0.03 0.06,0.05c0.02,0.01 0.04,0.02 0.05,0.04c0.01,0.01 0.02,0.02 0.03,0.03c0.06,0.05 0.12,0.12 0.16,0.2c0.21,0.35 0.41,0.72 0.61,1.09c0.21,-0.39 0.43,-0.78 0.65,-1.17c0.09,-0.16 0.23,-0.26 0.37,-0.36c0.01,0 0.01,-0.01 0.02,-0.01c0.11,-0.08 0.25,-0.09 0.36,-0.02c0.05,0.03 0.08,0.06 0.11,0.1c0,0.01 0,0.01 0,0.02c0.01,0.01 0.01,0.01 0.01,0.03c0,0 0.01,0.01 0.01,0.01c0,0.03 0.01,0.05 0.01,0.08c0,0.67 0.04,1.33 0.06,2c0,0.29 0.01,0.54 0.03,0.83c0.03,0.41 0.07,0.68 0.1,0.88c0.03,0.27 -0.03,0.42 -0.24,0.42z" fill="#0B83F4" id="svg_23"/>
   <path d="m180.25,56.96c-0.01,-0.01 -0.02,-0.02 -0.03,-0.02c0.01,0 0.02,0.01 0.03,0.02z" fill="#0B83F4" id="svg_24"/>
   <path d="m180.11,60.96c-0.26,0 -0.51,0.01 -0.77,0c-0.43,0 -0.57,-0.16 -0.54,-0.59c0.03,-0.42 0.01,-0.83 0.02,-1.25c0,-0.06 -0.03,-0.1 -0.07,-0.14c-0.12,-0.12 -0.12,-0.26 0.01,-0.36c0.07,-0.05 0.1,-0.1 0.1,-0.18c-0.01,-0.45 0.11,-0.87 0.17,-1.31c0.02,-0.19 0.16,-0.3 0.36,-0.31c0.25,0 0.51,0 0.76,0c0.31,0 0.61,0 0.91,-0.01c0.16,-0.01 0.21,0.06 0.23,0.19c0.03,0.13 -0.04,0.22 -0.16,0.27c-0.09,0.04 -0.21,0.05 -0.31,0.05c-0.36,0 -0.72,0.01 -1.07,0c-0.11,0 -0.14,0.04 -0.16,0.14c-0.08,0.32 -0.12,0.65 -0.13,0.97c-0.01,0.1 0.01,0.14 0.11,0.13c0.09,0 0.18,0 0.27,-0.03c0.08,-0.02 0.17,-0.02 0.25,0.03c0.17,0.09 0.19,0.26 0.05,0.39c-0.11,0.1 -0.24,0.12 -0.38,0.11c-0.34,0 -0.34,0 -0.34,0.34c-0.01,0.32 0.02,0.63 -0.01,0.94c-0.02,0.11 0.03,0.13 0.13,0.13c0.45,0.01 0.9,0.01 1.35,0.01c0.11,0 0.2,0.04 0.24,0.14c0.03,0.1 0.02,0.19 -0.04,0.28c-0.05,0.06 -0.1,0.07 -0.17,0.07c-0.27,0 -0.54,0 -0.81,0c0,0 0,-0.01 0,-0.01z" fill="#0B83F4" id="svg_25"/>
   <path d="m173.22,61.11c-0.2,0 -0.41,0 -0.62,0c-0.23,0 -0.38,-0.15 -0.38,-0.39c0.01,-0.79 0.06,-1.59 0.18,-2.38c0.06,-0.38 0.16,-0.75 0.27,-1.13c0.08,-0.27 0.2,-0.35 0.48,-0.33c0.19,0 0.37,0.04 0.56,0.06c0.14,0.02 0.28,0.03 0.42,0.01c0.16,-0.02 0.31,0.07 0.33,0.21c0.03,0.13 -0.05,0.23 -0.22,0.29c-0.18,0.06 -0.34,0.01 -0.52,0c-0.13,0 -0.26,-0.02 -0.39,-0.05c-0.07,-0.01 -0.11,0 -0.13,0.08c-0.07,0.36 -0.19,0.72 -0.24,1.09c-0.02,0.11 0.01,0.15 0.12,0.17c0.19,0.04 0.38,0.09 0.58,0.1c0.17,0 0.3,0.11 0.3,0.24c0,0.14 -0.12,0.24 -0.3,0.25c-0.22,0.02 -0.43,-0.03 -0.63,-0.08c-0.11,-0.03 -0.14,-0.01 -0.15,0.1c-0.03,0.37 -0.04,0.74 -0.06,1.12c0,0.1 0.03,0.14 0.13,0.13c0.26,-0.01 0.51,-0.01 0.77,-0.01c0.06,0 0.12,-0.01 0.18,-0.04c0.11,-0.03 0.22,-0.03 0.31,0.04c0.14,0.09 0.15,0.26 0.03,0.36c-0.1,0.08 -0.22,0.14 -0.35,0.14l-0.67,0.02z" fill="#0B83F4" id="svg_26"/>
   <path d="m173.26,55.7c0.09,0 0.15,0.01 0.2,0.04c0.26,0.13 0.51,0.26 0.77,0.4c0.16,0.08 0.21,0.19 0.17,0.32c-0.04,0.12 -0.2,0.19 -0.35,0.17c-0.1,-0.02 -0.17,-0.08 -0.25,-0.13c-0.21,-0.11 -0.43,-0.21 -0.64,-0.33c-0.11,-0.06 -0.19,-0.14 -0.15,-0.28c0.04,-0.14 0.15,-0.19 0.25,-0.19z" fill="#0B83F4" id="svg_27"/>
   <path d="m198.64,69.24c0.12,-0.79 0.18,-1.58 0.26,-2.36c0.05,-0.39 0.06,-0.78 0.05,-1.17c0,-0.2 0,-0.39 0.01,-0.58c0.03,-0.33 0.19,-0.49 0.46,-0.46c0.27,0.02 0.35,0.19 0.36,0.52c0,0.98 -0.09,1.95 -0.18,2.92c-0.06,0.66 -0.19,1.31 -0.21,1.97c-0.01,0.26 -0.15,0.42 -0.38,0.52c-0.22,0.09 -0.41,0 -0.56,-0.16c-0.29,-0.29 -0.44,-0.66 -0.63,-1.01c-0.44,-0.81 -0.74,-1.7 -1.18,-2.51c-0.08,-0.15 -0.16,-0.29 -0.28,-0.42c-0.03,0.44 -0.06,0.89 -0.08,1.34c-0.02,0.41 -0.02,0.83 -0.03,1.25c-0.01,0.42 -0.09,0.84 -0.1,1.26c0,0.32 -0.14,0.4 -0.53,0.37c-0.21,-0.02 -0.29,-0.15 -0.27,-0.43c0.1,-1.63 0.18,-3.27 0.2,-4.91c0,-0.09 -0.01,-0.17 -0.02,-0.26c-0.02,-0.23 0.07,-0.38 0.26,-0.45c0.2,-0.07 0.41,0 0.52,0.17c0.47,0.73 0.91,1.49 1.31,2.26c0.34,0.65 0.56,1.36 0.92,2c0.02,0.04 0.02,0.11 0.1,0.14z" fill="#0B83F4" id="svg_28"/>
   <path d="m179.89,67.88c0.07,0.75 -0.24,1.4 -0.72,1.98c-0.35,0.43 -0.83,0.65 -1.37,0.74c-0.5,0.08 -1.02,0.1 -1.52,0.12c-0.28,0.01 -0.44,-0.18 -0.43,-0.44c0.06,-1.46 0.21,-2.91 0.11,-4.37c-0.01,-0.17 -0.01,-0.34 -0.01,-0.51c0.01,-0.31 0.24,-0.5 0.55,-0.41c0.19,0.05 0.39,0.06 0.59,0.07c0.56,0.02 1.1,0.15 1.61,0.4c0.8,0.41 1.11,1.13 1.18,1.98c0.02,0.13 0.01,0.27 0.01,0.44zm-3.18,1.44c0,0.17 0.02,0.35 0,0.52c-0.01,0.15 0.05,0.18 0.17,0.16c0.23,-0.02 0.45,-0.04 0.68,-0.07c0.49,-0.06 0.86,-0.29 1.14,-0.71c0.46,-0.69 0.46,-1.44 0.3,-2.21c-0.09,-0.39 -0.28,-0.74 -0.65,-0.93c-0.45,-0.23 -0.93,-0.34 -1.44,-0.34c-0.12,0 -0.14,0.05 -0.13,0.16c0.01,0.21 0.02,0.41 0.03,0.62c0.01,0.94 -0.02,1.87 -0.1,2.8z" fill="#0B83F4" id="svg_29"/>
   <path d="m190.62,67.85c-0.04,-0.48 0.06,-0.93 0.25,-1.36c0.23,-0.51 0.63,-0.87 1.07,-1.18c0.31,-0.21 0.66,-0.24 1.02,-0.15c0.18,0.03 0.35,0.09 0.53,0.13c0.09,0.03 0.17,0.09 0.22,0.17c0.62,0.95 0.83,2.01 0.65,3.12c-0.1,0.59 -0.3,1.17 -0.72,1.64c-0.67,0.74 -1.5,0.59 -2.12,0.02c-0.61,-0.55 -0.85,-1.28 -0.9,-2.08c-0.01,-0.1 0,-0.21 0,-0.31zm2.97,0.02c0.05,-0.46 -0.1,-0.91 -0.22,-1.36c-0.05,-0.2 -0.15,-0.37 -0.3,-0.53c-0.16,-0.18 -0.5,-0.25 -0.69,-0.09c-0.34,0.27 -0.66,0.56 -0.82,0.99c-0.16,0.45 -0.16,0.9 -0.12,1.36c0.04,0.58 0.24,1.12 0.67,1.54c0.33,0.32 0.62,0.31 0.93,-0.03c0.09,-0.1 0.16,-0.23 0.22,-0.36c0.2,-0.47 0.37,-0.96 0.33,-1.52z" fill="#0B83F4" id="svg_30"/>
   <path d="m184.38,67.99c0,-0.87 -0.01,-1.67 0.05,-2.47c0.01,-0.13 -0.03,-0.16 -0.16,-0.16c-0.34,0 -0.68,-0.06 -1.02,-0.05c-0.24,0 -0.4,-0.15 -0.4,-0.34c0,-0.19 0.16,-0.33 0.4,-0.35c0.41,-0.03 0.82,0.07 1.22,0.05c0.78,-0.03 1.55,-0.1 2.32,-0.09c0.12,0 0.24,-0.04 0.36,-0.05c0.15,-0.03 0.29,-0.01 0.41,0.1c0.19,0.18 0.12,0.45 -0.15,0.55c-0.23,0.08 -0.48,0.09 -0.73,0.1c-0.37,0 -0.74,0 -1.11,0.01c-0.27,0 -0.32,0.06 -0.34,0.33c-0.01,0.35 -0.03,0.7 -0.03,1.05c-0.01,1.21 0,2.42 0,3.63c0,0.25 -0.17,0.42 -0.42,0.41c-0.25,0 -0.42,-0.17 -0.41,-0.4c0.04,-0.79 -0.01,-1.59 0.01,-2.32z" fill="#0B83F4" id="svg_31"/>
   <path d="m173.15,70.72c-0.3,0 -0.59,0 -0.89,0c-0.34,0 -0.55,-0.22 -0.55,-0.56c0.02,-1.14 0.08,-2.27 0.26,-3.4c0.08,-0.55 0.24,-1.09 0.39,-1.62c0.11,-0.39 0.29,-0.51 0.68,-0.48c0.27,0.01 0.53,0.06 0.8,0.09c0.2,0.03 0.4,0.04 0.6,0.02c0.24,-0.03 0.44,0.1 0.47,0.29c0.04,0.18 -0.08,0.34 -0.32,0.42c-0.24,0.09 -0.48,0.01 -0.73,0c-0.19,0 -0.38,-0.03 -0.56,-0.07c-0.11,-0.02 -0.16,0 -0.18,0.11c-0.12,0.53 -0.28,1.03 -0.36,1.57c-0.02,0.15 0.02,0.21 0.18,0.24c0.27,0.05 0.54,0.13 0.83,0.13c0.25,0 0.42,0.16 0.42,0.36c0.01,0.19 -0.17,0.34 -0.41,0.36c-0.32,0.02 -0.62,-0.05 -0.92,-0.13c-0.14,-0.04 -0.2,0 -0.2,0.15c-0.05,0.53 -0.07,1.07 -0.09,1.61c0,0.14 0.04,0.19 0.19,0.19c0.37,-0.02 0.74,-0.01 1.1,-0.01c0.1,0 0.18,-0.02 0.27,-0.06c0.15,-0.06 0.3,-0.04 0.44,0.05c0.19,0.13 0.21,0.37 0.03,0.52c-0.14,0.12 -0.31,0.2 -0.5,0.2l-0.95,0.02z" fill="#0B83F4" id="svg_32"/>
   <path d="m174.48,62.97c-0.14,-0.01 -0.22,0.02 -0.29,0.06c-0.37,0.19 -0.74,0.37 -1.1,0.57c-0.22,0.11 -0.31,0.28 -0.25,0.46c0.07,0.18 0.29,0.28 0.51,0.23c0.14,-0.02 0.24,-0.11 0.36,-0.17c0.31,-0.16 0.61,-0.32 0.91,-0.48c0.16,-0.09 0.28,-0.21 0.22,-0.41c-0.06,-0.19 -0.22,-0.25 -0.36,-0.26z" fill="#0B83F4" id="svg_33"/>
   <path d="m181.81,66.07c-0.15,1.3 -0.12,2.73 -0.14,4.15c0,0.38 -0.25,0.58 -0.57,0.47c-0.17,-0.05 -0.3,-0.18 -0.27,-0.37c0.06,-0.47 0.05,-0.94 0.03,-1.4c-0.04,-1.23 0.15,-2.45 0.13,-3.67c0,-0.09 -0.01,-0.19 -0.02,-0.28c-0.03,-0.22 0.05,-0.38 0.25,-0.44c0.21,-0.06 0.43,0.02 0.52,0.21c0.05,0.1 0.07,0.2 0.07,0.31c0,0.3 0,0.6 0,1.02z" fill="#0B83F4" id="svg_34"/>
   <path d="m181.51,63.93c-0.22,0 -0.4,-0.16 -0.4,-0.35c0,-0.18 0.18,-0.33 0.4,-0.34c0.23,0 0.42,0.16 0.41,0.36c-0.01,0.19 -0.19,0.33 -0.41,0.33z" fill="#0B83F4" id="svg_35"/>
   <path d="m189.57,66.07c-0.15,1.3 -0.12,2.73 -0.14,4.15c0,0.38 -0.25,0.58 -0.56,0.47c-0.18,-0.05 -0.31,-0.18 -0.28,-0.37c0.07,-0.47 0.05,-0.94 0.03,-1.4c-0.03,-1.23 0.16,-2.45 0.13,-3.67c0,-0.09 0,-0.19 -0.02,-0.28c-0.03,-0.22 0.05,-0.38 0.26,-0.44c0.2,-0.06 0.42,0.02 0.51,0.21c0.05,0.1 0.07,0.2 0.07,0.31c0,0.3 0,0.6 0,1.02z" fill="#0B83F4" id="svg_36"/>
   <path d="m189.27,63.93c-0.21,0 -0.39,-0.16 -0.39,-0.35c0,-0.18 0.18,-0.33 0.4,-0.34c0.23,0 0.41,0.16 0.4,0.36c0,0.19 -0.19,0.33 -0.41,0.33z" fill="#0B83F4" id="svg_37"/>
   <path d="m154,58c1.76,0 2.65,0 3.43,0c1.02,-0.01 1.89,-0.23 2.57,-0.5c0.97,-0.39 1.83,-0.3 2.7,-0.56c0.88,-0.26 1.6,-0.91 2.5,-0.94c0.9,-0.03 1.77,0 2.63,0c0.88,0 1.94,-0.05 2.17,0.72c0.26,0.9 0,1.85 0,2.58c0,0.99 -0.17,1.87 -0.5,2.71c-0.33,0.83 -0.56,1.63 -1.3,2.08c-0.7,0.43 -1.4,1.11 -2.03,1.75c-0.59,0.59 -1.6,1.72 -2.16,1.11c-0.61,-0.65 0.49,-1.72 1.35,-1.94c0.84,-0.22 1.75,0 2.65,0c0.88,0 1.86,0.05 2,0.92c0.13,0.78 0.01,1.6 0,2.56c-0.01,0.93 -0.19,1.86 -0.52,2.52c-0.43,0.86 -1.1,1.57 -1.68,2.2c-0.54,0.58 -0.76,1.56 -1.32,2.3c-0.5,0.66 -1.18,1.14 -2.08,1.53l-0.79,0.4l-0.69,0.57" fill="none" fill-opacity="null" id="svg_39" stroke="null" stroke-dasharray="null" stroke-linecap="null" stroke-linejoin="null" stroke-opacity="null"/>
   <text fill="#1c86f1" font-family="Courier" font-size="24" id="svg_42" stroke="null" stroke-dasharray="null" stroke-linecap="null" stroke-linejoin="null" stroke-opacity="null" stroke-width="0" text-anchor="middle" x="164.58" xml:space="preserve" y="70.81">3</text>
  </g>
 </g>
</svg>