<svg width="20" height="20" viewBox="0 0 20 20" fill="none" xmlns="http://www.w3.org/2000/svg">
<path d="M10 1.46655C7.68247 1.46655 7.39188 1.47638 6.48171 1.5179C5.57344 1.55936 4.95312 1.7036 4.41031 1.91456C3.84917 2.13263 3.37328 2.42441 2.89889 2.8988C2.4245 3.3732 2.13272 3.84908 1.91465 4.41022C1.70368 4.953 1.55945 5.57332 1.51799 6.48159C1.47646 7.39175 1.46667 7.68235 1.46667 9.99987C1.46667 12.3174 1.47646 12.608 1.51799 13.5181C1.55945 14.4264 1.70368 15.0467 1.91465 15.5895C2.13272 16.1506 2.4245 16.6265 2.89889 17.1009C3.37328 17.5753 3.84917 17.8671 4.41031 18.0852C4.95312 18.2961 5.57344 18.4404 6.48171 18.4818C7.39188 18.5233 7.68247 18.5332 10 18.5332C12.3175 18.5332 12.6081 18.5233 13.5182 18.4818C14.4265 18.4404 15.0468 18.2961 15.5896 18.0852C16.1508 17.8671 16.6266 17.5753 17.1011 17.1009C17.5755 16.6265 17.8672 16.1506 18.0853 15.5895C18.2962 15.0467 18.4405 14.4264 18.4819 13.5181C18.5235 12.608 18.5333 12.3174 18.5333 9.99987C18.5333 7.68235 18.5235 7.39175 18.4819 6.48159C18.4405 5.57332 18.2962 4.953 18.0853 4.41022C17.8672 3.84908 17.5755 3.3732 17.1011 2.8988C16.6266 2.42441 16.1508 2.13263 15.5896 1.91456C15.0468 1.7036 14.4265 1.55936 13.5182 1.5179C12.6081 1.47638 12.3175 1.46655 10 1.46655ZM10 3.00412C12.2785 3.00412 12.5484 3.01279 13.4482 3.05384C14.2802 3.09181 14.732 3.23083 15.0327 3.34766C15.431 3.50246 15.7153 3.6874 16.0138 3.98599C16.3125 4.28458 16.4974 4.56888 16.6522 4.96716C16.769 5.26785 16.9081 5.71968 16.946 6.55167C16.987 7.45147 16.9958 7.72137 16.9958 9.99987C16.9958 12.2783 16.987 12.5482 16.946 13.448C16.9081 14.28 16.769 14.7319 16.6522 15.0326C16.4974 15.4309 16.3125 15.7151 16.0138 16.0137C15.7153 16.3123 15.431 16.4973 15.0327 16.6521C14.732 16.7689 14.2802 16.9079 13.4482 16.9459C12.5485 16.9869 12.2786 16.9956 10 16.9956C7.72132 16.9956 7.45149 16.9869 6.55179 16.9459C5.7198 16.9079 5.26797 16.7689 4.96728 16.6521C4.56897 16.4973 4.28471 16.3123 3.98608 16.0137C3.68749 15.7151 3.50254 15.4309 3.34778 15.0326C3.23092 14.7319 3.0919 14.28 3.05393 13.448C3.01288 12.5482 3.0042 12.2783 3.0042 9.99987C3.0042 7.72137 3.01288 7.45147 3.05393 6.55167C3.0919 5.71968 3.23092 5.26785 3.34778 4.96716C3.50254 4.56888 3.68749 4.28458 3.98608 3.98599C4.28471 3.6874 4.56897 3.50246 4.96728 3.34766C5.26797 3.23083 5.7198 3.09181 6.55179 3.05384C7.45159 3.01279 7.72149 3.00412 10 3.00412Z" fill="#0B83F4"/>
<path d="M10 12.8443C8.42906 12.8443 7.15557 11.5708 7.15557 9.9999C7.15557 8.42894 8.42906 7.15545 10 7.15545C11.571 7.15545 12.8444 8.42894 12.8444 9.9999C12.8444 11.5708 11.571 12.8443 10 12.8443ZM10 5.61792C7.5799 5.61792 5.61804 7.57978 5.61804 9.9999C5.61804 12.42 7.5799 14.3818 10 14.3818C12.4201 14.3818 14.382 12.42 14.382 9.9999C14.382 7.57978 12.4201 5.61792 10 5.61792Z" fill="#0B83F4"/>
<path d="M15.5791 5.44464C15.5791 6.01018 15.1207 6.46862 14.5551 6.46862C13.9896 6.46862 13.5311 6.01018 13.5311 5.44464C13.5311 4.87909 13.9896 4.42065 14.5551 4.42065C15.1207 4.42065 15.5791 4.87909 15.5791 5.44464Z" fill="#0B83F4"/>
</svg>
