<svg width="108" height="182" viewBox="0 0 108 182" fill="none" xmlns="http://www.w3.org/2000/svg">
<g clip-path="url(#clip0)">
<path d="M108 164.108C108 164.108 95.4661 163.234 86.6994 158.845C78.0162 154.496 72.1114 148.552 68.8665 142.6C65.6217 136.649 67.2441 118.809 70.0224 108.282C72.8008 97.7549 69.7926 91.8103 64.236 91.3494C58.6793 90.8884 55.6851 104.387 55.4414 115.602C49.648 101.642 47.559 88.15 43.6247 84.4828C39.6905 80.8225 34.8232 81.0496 33.8971 84.4828C32.971 87.9161 32.5044 89.9733 33.8971 97.2939C35.2897 104.615 36.9818 111.632 36.9818 111.632C36.9818 111.632 26.9478 103.472 23.4731 100.803C20.3605 98.4085 15.3679 95.4638 11.6634 97.7549C7.95898 100.046 8.18877 106.906 11.6634 111.027C15.1381 115.148 27.275 125.902 27.275 125.902C27.275 125.902 16.7605 123.7 10.2708 122.971C3.788 122.242 1.78954 125.448 1.78954 130.023C1.78954 134.599 23.4731 143.749 29.4963 143.749C20.6948 146.495 16.7605 146.268 15.3679 148.786C13.9752 151.304 12.123 157.71 20.2282 157.482C28.3335 157.255 43.1512 154.276 48.0116 152.68C56.465 161.604 67.5226 170.713 76.3799 175.22C86.9849 180.614 98.4951 180.593 107.986 181.054C108 173.493 108 164.108 108 164.108Z" fill="#FCD9E5"/>
<path d="M18.2089 29.8673C18.8565 30.3833 18.8565 31.4085 18.2089 31.9245C16.5168 33.2661 13.1814 35.4541 9.34468 35.4541C5.5149 35.4541 2.1795 33.2799 0.48743 31.9314C-0.167115 31.4153 -0.167115 30.3764 0.48743 29.8604C2.1795 28.5188 5.50793 26.3377 9.34468 26.3377C13.1814 26.3377 16.5238 28.5188 18.2089 29.8673Z" fill="#3D9CF6"/>
<path d="M30.8263 56.1705C30.9029 56.8998 30.2484 57.5535 29.5103 57.4709C27.5814 57.2645 24.065 56.5627 21.6348 54.1615C19.2116 51.7672 18.4944 48.2995 18.2855 46.3937C18.2019 45.6575 18.8704 45.0038 19.6155 45.0795C21.5513 45.2859 25.0538 45.9946 27.477 48.3889C29.9072 50.7902 30.6174 54.2578 30.8263 56.1705Z" fill="#3D9CF6"/>
<path d="M46.2778 48.4095C45.5954 48.7948 44.5857 48.4784 44.2515 47.7766C43.381 45.9395 42.1207 42.4512 43.1582 39.2106C44.1888 35.9769 47.2317 33.8303 49.0143 32.8189C49.6967 32.4267 50.7203 32.7432 51.0545 33.4519C51.925 35.2958 53.1783 38.7703 52.1478 42.004C51.1103 45.2515 48.0603 47.3982 46.2778 48.4095Z" fill="#3D9CF6"/>
<path d="M28.424 26.489C27.6302 26.8605 26.5509 26.4064 26.2654 25.5877C25.5203 23.4479 24.5385 19.423 26.0495 15.8934C27.5536 12.3707 31.1466 10.2585 33.2217 9.28834C34.0224 8.91681 35.1087 9.3709 35.3942 10.1965C36.1393 12.3432 37.1141 16.3544 35.6031 19.8771C34.099 23.4135 30.499 25.5258 28.424 26.489Z" fill="#3D9CF6"/>
<path d="M16.2731 15.3499C15.9946 16.1067 14.9919 16.5127 14.2607 16.1549C12.3459 15.2329 9.03135 13.2239 7.67351 9.92825C6.32264 6.63948 7.28357 2.92414 8.00078 0.942619C8.27931 0.178909 9.29595 -0.227027 10.0271 0.130747C11.942 1.0527 15.2495 3.06174 16.6004 6.35051C17.9582 9.65304 16.9973 13.3753 16.2731 15.3499Z" fill="#3D9CF6"/>
<path d="M49.2093 16.0173C48.2762 16.1205 47.3431 15.3018 47.3431 14.3729C47.3362 11.9511 47.747 7.54771 50.5044 4.48599C53.2549 1.43115 57.6278 0.516074 60.065 0.240863C61.005 0.137659 61.9451 0.963291 61.9451 1.89901C61.952 4.32086 61.5342 8.71735 58.7837 11.7722C56.0263 14.8339 51.6464 15.749 49.2093 16.0173Z" fill="#3D9CF6"/>
</g>
<defs>
<clipPath id="clip0">
<rect width="108" height="181.04" fill="white"/>
</clipPath>
</defs>
</svg>
