<svg width="153" height="109" viewBox="0 0 153 109" fill="none" xmlns="http://www.w3.org/2000/svg">
<g clip-path="url(#clip0)">
<path d="M86.73 79.8621L93.924 94.6087C93.924 94.6087 92.5575 98.6233 91.8756 101.718C91.1937 104.815 91.5114 107.578 90.3284 107.951C89.1454 108.323 80.8122 106.726 79.9468 104.952C79.0815 103.177 79.3088 102.72 79.9468 100.899C80.5849 99.0779 85.4101 81.5462 86.73 79.8621Z" fill="#3F8177"/>
<path d="M112.776 82.1377C112.776 82.1377 113.868 88.8305 114.78 91.2897C115.692 93.7488 115.928 95.3289 116.16 97.0432C116.27 97.8565 116.327 100.625 117.102 103.221C117.877 105.817 118.242 106.954 119.06 107.318C119.879 107.682 123.795 106.636 126.391 103.72C128.987 100.806 128.396 100.258 127.848 98.6205C127.3 96.9802 125.526 94.113 125.526 92.4289C125.526 90.7447 126.665 82.9127 126.665 82.9127L112.776 82.1377Z" fill="#3F8177"/>
<path d="M42.5476 59.6685C42.5476 59.6685 44.0948 48.1944 42.1834 40.8169C40.2719 33.4395 38.722 29.6166 35.8986 27.612C33.0752 25.6075 31.8922 28.2501 31.8922 28.2501C31.8922 28.2501 30.7996 30.9831 30.7996 34.3514C29.0689 31.6184 24.3642 24.8818 17.3208 19.9635C12.1123 16.3268 9.03695 18.1205 8.136 18.7284C7.33363 19.2652 6.12049 20.8453 6.36421 23.5755C6.55043 25.6705 9.33819 31.9525 11.9507 34.6253C9.49154 33.7462 6.63806 33.319 3.4806 33.4422C0.777733 33.5463 -0.410762 35.9014 0.123239 37.6321C0.65724 39.3628 2.63442 40.858 5.75627 42.3669C8.92742 43.9004 16.7019 44.1852 21.7681 45.1601C30.9639 46.9319 35.1729 51.0177 37.2651 54.2053C39.36 57.3929 40.3623 60.4901 40.3623 60.4901C40.3623 60.4901 41.2742 61.035 42.5476 59.6685Z" fill="#FFC600"/>
<path d="M21.5709 9.97902C21.5709 9.97902 21.5134 1.96626 16.7786 0.325918C12.0438 -1.31443 13.3172 3.7846 13.3172 3.7846C13.3172 3.7846 14.1305 5.78916 17.3647 6.7887C20.5988 7.78825 21.5709 9.97902 21.5709 9.97902Z" fill="#FFC600"/>
<path d="M38.7247 59.6083C38.7247 59.6083 42.397 58.0008 43.1418 58.0912C43.8867 58.1816 44.2509 58.9702 44.2509 59.6083C44.2509 60.2464 45.5873 66.6215 47.1044 67.9853C48.6215 69.3518 50.9602 69.4421 52.2034 67.6512C53.4467 65.8602 55.391 61.8237 56.5439 57.2395C56.5439 57.2395 58.9428 47.0415 60.7639 42.5778C62.585 38.114 63.768 38.1606 64.8168 36.7037C65.8629 35.2469 68.3686 31.7416 70.3266 30.9201C72.2846 30.1013 72.4653 29.7371 77.1563 29.6001C81.8473 29.4632 87.3544 29.5098 92.0919 30.1013C96.8268 30.6928 101.154 32.4701 103.248 32.5139C105.343 32.5604 112.447 32.4235 115.451 32.4673C118.455 32.5139 122.963 32.9685 126.06 34.198C129.157 35.4276 134.62 38.5686 137.216 44.2154C139.812 49.8621 140.585 54.0054 140.995 57.7379C142.499 61.3363 142.954 63.0204 144.137 63.2477C145.32 63.475 147.324 63.7954 147.735 61.0624C148.146 58.3294 148.146 55.2185 148.146 55.2185H150.386C150.386 55.2185 150.879 61.7443 149.696 63.8858C148.513 66.0245 146.692 66.9364 144.55 66.4353C142.411 65.9342 141.409 64.4773 139.952 62.2454C139.769 65.7069 139.361 68.166 139.314 70.4855C139.268 72.8077 139.404 83.2796 139.588 85.558C139.771 87.8337 139.815 90.2928 140.043 91.2486C140.27 92.2043 141.954 95.7561 142.365 97.076C142.776 98.396 142.956 101.493 141.817 103.268C140.678 105.042 138.265 105.543 136.992 105.727C135.716 105.91 134.67 105.864 133.577 105.727C132.484 105.59 130.116 105.089 129.48 104.544C128.845 103.999 129.206 102.495 129.571 101.994C129.935 101.493 131.345 100.674 131.575 98.9902C131.802 97.3061 130.529 94.3923 129.664 91.8428C128.798 89.2933 128.07 85.2404 127.205 84.375C126.339 83.5097 125.975 82.9647 124.154 83.0989C122.333 83.2331 115.958 83.8273 111.404 83.0523C106.85 82.2773 101.249 79.8182 101.249 79.8182C101.249 79.8182 101.066 84.145 103.024 87.4667C104.982 90.7912 108.443 94.0692 109.079 95.3426C109.714 96.616 110.536 98.3029 108.35 101.263C106.165 104.223 103.659 105.845 103.659 105.845C103.659 105.845 100.745 108.775 98.7875 105.179C96.8295 101.584 97.1033 100.08 96.0545 98.1221C95.0084 96.1641 89.5616 88.5156 88.4361 85.873C87.3106 83.2331 86.3549 78.4517 86.3083 76.0829C86.2617 73.7141 86.7191 72.5311 86.2179 71.8027C85.7168 71.0743 79.1143 63.2422 77.9779 60.92C76.8414 58.5978 76.1431 57.6421 74.6233 57.8228C73.4813 57.9597 70.8606 58.8443 69.6365 59.2742C69.4585 59.3372 69.3134 59.1236 69.4366 58.9784L69.9624 58.3678C69.9624 58.3678 68.1413 58.6416 66.7283 59.5508C65.3179 60.4627 61.1281 65.7425 58.7593 69.705C56.3905 73.6676 55.2075 76.3979 51.6119 76.5813C48.0136 76.7648 45.056 76.5348 42.323 72.3011C39.59 68.0784 37.1911 60.2464 38.7247 59.6083Z" fill="#85CED4"/>
<path d="M83.1919 26.3579C83.1919 26.3579 78.7611 28.5432 77.6684 31.2762C76.5758 34.0092 74.8752 39.1082 74.815 42.9338C74.7547 46.7595 74.207 54.9557 75.8474 59.4468C77.4877 63.9406 79.0048 64.9703 80.5822 65.6385C81.1709 65.8877 81.683 66.0273 82.0938 66.104C82.5949 66.1971 83.0742 65.8576 83.1372 65.3537C83.1919 64.9155 83.3973 64.3788 83.9806 63.9406C85.1938 63.0287 85.013 61.3637 85.8017 60.1944C86.5904 59.0251 86.7684 58.8416 88.2882 58.5376C89.8081 58.2337 90.5968 57.5545 90.5968 56.7111C90.5968 55.8676 90.1723 54.5313 90.2325 53.4386C90.2928 52.346 90.2928 51.6175 91.2649 51.5573C92.2371 51.497 94.5429 51.497 95.2713 50.3441C95.9998 49.1912 96.1832 47.6111 95.819 45.7901C95.4548 43.969 95.2713 42.3286 96.0025 41.9644C96.7309 41.6002 100.373 39.9599 101.345 37.7143C102.317 35.4688 102.583 33.2835 101.994 31.9471C101.405 30.6107 98.311 26.6728 93.8172 25.7554C89.3234 24.8326 86.5931 24.7176 83.1919 26.3579Z" fill="#3F8177"/>
<path d="M148.973 56.5002C148.973 56.5002 147.395 56.8452 146.787 53.6741C146.179 50.5029 147.576 46.5267 148.669 45.2807C149.761 44.0347 150.473 44.5495 150.673 44.733C151.347 45.3519 150.391 46.6417 150.673 47.403C151.016 48.3341 151.982 48.9913 152.404 50.0429C153.193 52.0173 152.612 53.6713 151.21 55.3144C150.2 56.5029 148.973 56.5002 148.973 56.5002Z" fill="#3F8177"/>
<path d="M47.5645 71.7014C47.2085 71.7562 46.3212 71.8904 45.8119 71.9753C44.9931 72.1122 44.5056 73.0378 46.1158 73.7662C47.7233 74.4947 51.3052 74.5549 54.3121 72.8872C57.3162 71.2167 63.9652 66.0575 65.3618 64.1761C66.7584 62.2948 67.3664 61.717 66.9693 59.8055C66.9693 59.8055 66.5147 58.4993 65.5727 57.9242C64.6306 57.3464 63.7817 57.3163 63.1135 57.56C62.4453 57.8037 61.443 59.2934 60.6845 60.6435C59.9259 61.9936 56.952 66.4244 55.3417 67.6375C53.7343 68.8507 52.1405 70.0091 50.2126 70.795C49.1583 71.2222 48.4518 71.5645 47.5645 71.7014Z" fill="white"/>
<path d="M66.5831 44.7111C66.5831 44.7111 67.0624 45.8366 68.3248 45.842C69.5681 45.8448 70.0035 45.0999 70.187 44.3112C70.3705 43.5226 70.8689 43.6047 70.9839 43.8731C71.1153 44.1825 71.0934 44.659 70.8798 45.2533C70.4992 46.2994 69.5161 46.795 68.4809 46.7978C67.4896 46.8005 66.6133 46.4637 66.2052 45.5326C65.5918 44.136 66.3832 44.1579 66.5831 44.7111Z" fill="black"/>
</g>
<defs>
<clipPath id="clip0">
<rect width="152.76" height="108.002" fill="white"/>
</clipPath>
</defs>
</svg>
