<svg width="16" height="20" viewBox="0 0 16 20" fill="none" xmlns="http://www.w3.org/2000/svg">
<path d="M9.95119 3.385C10.0692 3.26537 10.1267 3.12183 10.1107 2.96119C10.1011 2.21953 8.83462 0.285072 8.21572 0.0355741C8.00517 -0.0498704 7.83928 0.0253208 7.70529 0.189374C7.49473 0.445707 7.28418 0.702041 7.09915 0.978881C7.06546 1.02862 7.03173 1.07835 6.99798 1.12811C6.65136 1.63911 6.30321 2.15238 5.99215 2.69119C5.6827 3.2312 5.75607 3.43626 6.23779 3.72677C6.32587 3.7794 6.41035 3.8378 6.49505 3.89636C6.56989 3.9481 6.64489 3.99995 6.7227 4.04805C6.96835 4.20185 7.20123 4.21552 7.39265 3.93868C7.4306 3.88349 7.47489 3.83201 7.51916 3.78056C7.57907 3.71092 7.63892 3.64134 7.68296 3.56272C7.88713 3.19702 8.07535 3.25512 8.33695 3.51145C9.04922 4.21322 9.05789 4.20532 9.80032 3.52838L9.80764 3.52171C9.85868 3.47728 9.90653 3.43285 9.95119 3.385Z" fill="#121212"/>
<path d="M13.2212 6.3319L13.2212 6.31745C13.2001 6.17737 13.1806 6.03229 13.1605 5.88349C13.0378 4.97219 12.8962 3.92079 12.2737 3.01588C12.265 3.0028 12.2564 2.98964 12.248 2.97661C12.1637 2.84659 12.0877 2.72944 11.9196 2.83815C11.6966 2.98457 11.469 3.12318 11.2414 3.26175C10.7625 3.55341 10.2838 3.84492 9.84912 4.20868C9.35783 4.61882 9.33231 4.84439 9.69599 5.37756C10.2032 6.1158 10.6531 6.8848 10.9721 7.73925C11.1284 8.14938 11.2528 8.19723 11.6005 7.95799C11.9323 7.73241 12.2641 7.51368 12.6501 7.39747C13.2244 7.22071 13.2244 7.20961 13.2212 6.3319Z" fill="#121212"/>
<path d="M5.24565 8.47749C5.26798 8.06394 5.3605 7.76659 5.49767 7.48975C6.0432 6.37214 6.694 5.33655 7.57769 4.48894C7.98923 4.09248 8.22211 4.10957 8.54751 4.58122C9.28445 5.64073 10.0022 6.7105 10.5159 7.92381C10.7551 8.48774 10.7519 8.55268 10.2447 8.83977C9.32592 9.35927 8.7804 10.2445 8.26359 11.1604C8.02113 11.5877 7.86162 11.6424 7.55855 11.2493C7.10859 10.6637 6.59175 10.1549 6.07417 9.64542C5.9936 9.56611 5.91301 9.48677 5.83265 9.40712C5.5551 9.13028 5.3605 8.78509 5.24565 8.47749Z" fill="#121212"/>
<path d="M15.4575 8.92864C15.3714 10.5008 15.0523 11.9705 14.2739 13.3581C13.2531 15.1832 11.725 16.1538 9.92887 16.7724C9.78425 16.8214 9.64281 16.8814 9.50138 16.9414C9.21852 17.0614 8.93565 17.1814 8.62727 17.2133C8.43481 17.2327 8.4266 17.3917 8.41828 17.553L8.41671 17.5825C8.40213 17.8538 8.38478 18.1258 8.36743 18.3978C8.34304 18.7802 8.31864 19.1629 8.30187 19.5443C8.28592 19.91 8.0945 20.0125 7.801 19.9988C7.49474 19.9851 7.40223 19.7938 7.39266 19.4827C7.38468 19.1683 7.36714 18.8547 7.34959 18.5411C7.33204 18.2276 7.3145 17.914 7.30652 17.5995C7.29695 17.3022 7.19167 17.1826 6.91413 17.1894C6.75142 17.1928 6.58553 17.1621 6.42921 17.1142C4.79264 16.6084 3.22944 15.959 2.05544 14.5406C1.35359 13.693 0.986719 12.6643 0.69003 11.5979C0.539292 11.0571 0.533909 10.5047 0.528525 9.95226C0.526731 9.76813 0.524936 9.584 0.517758 9.40029C0.511714 9.25135 0.512111 9.1024 0.512509 8.95346C0.512951 8.78797 0.513393 8.62248 0.504998 8.45698C0.476286 7.89305 0.559231 7.80761 1.07285 7.88621C3.28048 8.22457 5.06062 9.35928 6.39412 11.2732C6.82799 11.8953 7.14063 12.6096 7.28419 13.3854C7.47879 14.4278 7.6734 15.4771 7.67021 16.5469C7.67021 16.6152 7.67339 16.6836 7.67659 16.7519C7.68935 16.9023 7.74039 17.0219 7.90309 17.0219C8.0626 17.0219 8.12959 16.9091 8.12959 16.7553C8.13215 16.5913 8.12653 16.4273 8.12092 16.2632C8.11952 16.2222 8.11811 16.1812 8.11683 16.1402C8.10589 15.8299 8.09184 15.5193 8.07778 15.2087C8.04678 14.5233 8.01574 13.8373 8.01794 13.153C8.02113 12.0081 8.63046 11.1673 9.3323 10.3812C10.2862 9.31485 11.4219 8.53218 12.7203 8.11862C13.4636 7.8828 14.2452 7.64013 15.0619 7.77001C15.4256 7.82811 15.5309 8.03318 15.4926 8.38863C15.4832 8.49741 15.4771 8.60382 15.4711 8.70925C15.4669 8.7826 15.4627 8.85576 15.4575 8.92864Z" fill="#121212"/>
<path d="M2.71315 5.96451C2.88841 5.09009 3.08211 4.12371 3.48783 3.22094C3.62501 2.91676 3.84833 2.94069 4.06526 3.06031C4.46085 3.27905 4.84686 3.51487 5.22331 3.76437C5.41064 3.88826 5.58791 4.03011 5.76485 4.17169C5.83198 4.2254 5.89906 4.27908 5.96662 4.33172C6.51853 4.76578 6.55362 4.85122 6.11337 5.4425C5.5519 6.19783 5.11165 7.0181 4.7703 7.90672C4.66821 8.17672 4.53103 8.19381 4.33643 8.02976C3.90894 7.66747 3.41765 7.46583 2.88488 7.35304C2.59457 7.2881 2.585 7.24367 2.59457 6.54303C2.63465 6.35612 2.67343 6.16266 2.71315 5.96451Z" fill="#121212"/>
</svg>
