<svg width="200" height="291" viewBox="0 0 200 291" fill="none" xmlns="http://www.w3.org/2000/svg">
<path d="M200 263.104C200 263.104 180.059 261.713 166.111 254.73C152.297 247.812 142.903 238.354 137.74 228.886C132.578 219.417 135.159 191.034 139.579 174.286C143.999 157.538 139.213 148.081 130.373 147.347C121.533 146.614 116.769 168.091 116.381 185.933C107.164 163.723 103.841 142.257 97.5815 136.423C91.3223 130.6 83.5786 130.961 82.1052 136.423C80.6318 141.885 79.8895 145.158 82.1052 156.805C84.3208 168.452 87.0128 179.617 87.0128 179.617C87.0128 179.617 71.0491 166.635 65.5211 162.388C60.5691 158.578 52.626 153.893 46.7324 157.538C40.8388 161.183 41.2043 172.097 46.7324 178.654C52.2604 185.21 71.5698 202.319 71.5698 202.319C71.5698 202.319 54.8416 198.817 44.5167 197.656C34.2029 196.496 31.0234 201.597 31.0234 208.876C31.0234 216.155 65.5211 230.714 75.1037 230.714C61.1008 235.081 54.8416 234.72 52.626 238.726C50.4103 242.733 47.4635 252.924 60.3586 252.562C73.2537 252.201 96.8281 247.462 104.561 244.922C118.01 259.119 135.602 273.612 149.693 280.782C166.566 289.364 184.878 289.331 199.978 290.064C200 278.034 200 263.104 200 263.104Z" fill="#FCD9E5"/>
<path d="M4.97625 49.1988L93.3485 11.2849C93.3485 11.2849 124.464 35.2809 128.233 46.1552C132.002 57.0396 130.786 73.9809 109.57 100.204L98.1726 113.638L128.102 192.53C128.102 192.53 129.911 197.639 132.072 196.894C134.233 196.138 144.424 192.489 152.957 190.867C161.49 189.234 169.198 189.839 171.148 193.084C173.198 196.501 170.897 204.442 159.922 211.88C148.846 219.398 136.726 225.747 119.057 230.071C108.082 232.762 94.9566 234.223 90.3234 230.605C86.6952 227.773 89.2078 222.28 90.8762 220.497C94.6852 216.385 102.585 210.761 115.519 204.251C118.022 202.991 116.987 200.612 115.519 196.632C115.057 195.362 82.9565 120.028 82.9565 120.028C82.9565 120.028 83.4992 119.383 72.5042 120.058C61.9112 120.713 32.7955 119.141 22.6547 116.43C13.3381 113.941 5.31796 110.101 4.09182 103.6C2.85564 97.1001 3.5089 79.5742 3.5089 79.5742C3.5089 79.5742 3.79032 58.2086 4.97625 49.1988Z" fill="#6DB4F8"/>
<path d="M8.76444 51.8493C8.76444 51.8493 16.1112 46.9211 21.8097 45.2683C27.5083 43.6155 31.5284 43.3031 35.3877 41.5394C39.247 39.7758 43.7194 36.4298 47.2269 35.1902C50.7345 33.9506 62.6139 30.2116 67.6894 28.9015C72.7648 27.5913 87.1266 22.5825 88.8854 21.6755C90.6442 20.7684 95.0362 17.6543 95.0362 17.6543C95.0362 17.6543 112.745 40.8843 114.865 43.2124C116.986 45.5404 121.137 50.2066 122.232 52.837C123.328 55.4674 124.192 64.971 117.67 75.422C111.147 85.873 98.986 101.272 95.7699 104.044C92.5538 106.815 90.2523 109.647 87.1065 110.363C83.9507 111.078 72.7648 113.094 61.5687 112.62C50.3727 112.147 25.4379 109.849 20.4529 107.501C15.468 105.152 10.8449 103.076 9.27702 99.3978C7.71922 95.7193 7.69911 58.1985 8.76444 51.8493Z" fill="#FFDB5C"/>
<path d="M29.2775 68.5084C32.2304 68.5084 34.6242 66.1079 34.6242 63.1468C34.6242 60.1857 32.2304 57.7853 29.2775 57.7853C26.3245 57.7853 23.9307 60.1857 23.9307 63.1468C23.9307 66.1079 26.3245 68.5084 29.2775 68.5084Z" fill="white"/>
<path d="M85.137 65.0717C87.657 65.0717 89.6999 63.0232 89.6999 60.4963C89.6999 57.9693 87.657 55.9208 85.137 55.9208C82.617 55.9208 80.5742 57.9693 80.5742 60.4963C80.5742 63.0232 82.617 65.0717 85.137 65.0717Z" fill="white"/>
<path d="M70.2123 102.744C72.2383 102.744 73.8807 101.097 73.8807 99.0651C73.8807 97.0335 72.2383 95.3866 70.2123 95.3866C68.1864 95.3866 66.5439 97.0335 66.5439 99.0651C66.5439 101.097 68.1864 102.744 70.2123 102.744Z" fill="white"/>
<path d="M4.36276 54.9333C4.53362 55.1348 4.80496 55.2155 5.05622 55.1348C6.64417 54.5906 12.6342 52.4137 19.4784 48.574C27.4784 44.0892 31.187 44.5226 37.5388 42.1744C43.9006 39.8262 47.4182 36.8733 51.6293 35.1701C55.8404 33.4568 60.0414 32.8823 65.8706 31.3202C71.6997 29.7581 81.7601 24.195 84.7752 23.3888C87.8003 22.5825 95.4184 19.3374 99.2577 15.679C100.243 10.4888 99.5391 8.29173 97.2074 6.004C94.8757 3.71626 86.8757 -0.214195 80.3531 1.25721C74.9359 2.47666 69.4083 8.11031 67.6997 9.98484C67.4384 10.2771 66.9761 10.2569 66.7349 9.9546C65.9108 8.90648 62.2223 5.7218 57.77 5.17758C51.76 4.45196 47.3981 5.27835 43.4685 8.2514C39.2272 11.4462 37.177 17.5233 37.1971 21.8569C37.1971 22.3104 36.7649 22.643 36.3428 22.4817C33.4986 21.3933 30.0413 21.3228 26.8955 21.9174C23.398 22.5825 19.2975 26.0998 18.4734 30.1209L17.5889 34.4545C17.5085 34.8476 17.0563 35.029 16.7246 34.8073C15.1367 33.7188 11.0763 31.421 6.78487 33.0335C1.27731 35.1096 -0.782992 38.5664 0.262239 44.059C1.26727 49.35 1.72958 51.7889 4.36276 54.9333Z" fill="white"/>
</svg>
