<svg width="200" height="87" viewBox="0 0 200 87" fill="none" xmlns="http://www.w3.org/2000/svg">
<path d="M39.9038 33.5313C39.1723 34.4858 38.0905 34.9447 37.1676 35.6162C36.3095 36.2413 35.3136 36.5735 34.2782 36.7551C31.7686 37.1944 29.3968 36.7917 27.1755 35.5261C26.6649 35.2347 26.2738 34.8363 25.9432 34.3534C24.2326 31.8546 23.8008 29.0586 23.9893 26.1107C24.0849 24.6001 24.355 23.1332 24.8994 21.7141C25.5465 20.0275 26.7155 18.8084 28.2418 17.92C30.0214 16.8853 31.9528 16.2152 33.9631 15.8182C35.111 15.5915 36.2941 15.7126 37.4603 15.8126C38.158 15.8731 38.8515 15.9604 39.5085 16.2279C39.6801 16.2983 39.7364 16.2236 39.7378 16.0561C39.7406 15.7577 39.7195 15.4592 39.787 15.165C39.9136 14.6089 40.1781 14.3611 40.7366 14.2724C41.6144 14.1316 42.4992 14.1936 43.3798 14.2105C43.8581 14.2189 44.1521 14.5385 44.3224 14.9566C44.5235 15.4479 44.6262 15.9618 44.6262 16.4996C44.6206 19.8741 44.5995 23.2486 44.6332 26.6231C44.6501 28.4012 44.7655 30.1779 44.8429 31.9545C44.8499 32.1136 44.864 32.2853 44.9301 32.4247C45.1059 32.7908 45.0595 33.1314 44.9765 33.5214C44.8091 34.3126 44.2576 34.5801 43.5768 34.7378C42.9648 34.8799 42.3318 34.863 41.7185 35.0432C40.956 35.2671 39.9952 34.5421 40.0262 33.841C40.0276 33.7523 40.0219 33.6537 39.9038 33.5313ZM38.7531 24.9802C38.7531 23.8005 38.7418 22.7685 38.7601 21.7366C38.7657 21.4382 38.6715 21.2608 38.4197 21.0933C37.736 20.6385 36.9679 20.464 36.1801 20.3851C35.4163 20.3077 34.651 20.3119 33.9096 20.6047C32.2314 21.2706 30.7473 22.2082 29.5754 23.6034C29.28 23.9553 28.9705 24.2974 28.82 24.7423C28.2939 26.2909 28.3052 27.855 28.775 29.4064C29.1098 30.5101 29.823 31.3463 30.9386 31.6842C31.9866 32.0024 33.1078 32.0728 34.1755 31.8785C36.1604 31.5181 37.5672 30.3032 38.535 28.5575C38.6377 28.373 38.6897 28.1731 38.6799 27.962C38.6307 26.9188 38.7938 25.8784 38.7531 24.9802Z" fill="#121212"/>
<path d="M7.54583 77.7858C7.71745 79.5146 7.65696 81.2279 7.67243 82.9398C7.67384 83.1848 7.6443 83.4241 7.5599 83.6494C7.39249 84.0942 7.1238 84.3842 6.59909 84.4532C5.29222 84.6264 3.98957 84.556 2.68411 84.4828C2.49139 84.4715 2.37041 84.3927 2.286 84.2139C2.14111 83.9084 2.07218 83.5832 2.02575 83.2538C1.85976 82.0825 1.72049 80.9126 1.73596 79.7216C1.76832 77.0566 1.73737 74.3831 1.42648 71.7379C1.10293 68.9926 1.06917 66.2389 0.931304 63.4881C0.759681 60.046 0.727326 56.5983 0.813137 53.1519C0.831425 52.4396 0.80329 51.7286 0.856746 51.0163C0.91583 50.2378 1.26189 49.7197 2.02153 49.4466C3.38889 48.9552 4.76469 48.9257 6.12923 49.372C6.96343 49.6451 7.16882 50.0266 7.17585 50.9065C7.18148 51.5132 7.18148 51.5132 7.73714 51.3344C8.44333 51.1064 9.17625 51.0501 9.90635 50.9952C10.7068 50.9346 11.5129 50.9248 12.3133 50.9783C13.1391 51.0332 13.9184 51.3485 14.7259 51.5146C16.4716 51.875 18.0866 52.5916 19.6509 53.4208C20.8846 54.0755 21.6499 55.1792 22.2702 56.3913C22.3743 56.5954 22.4405 56.8193 22.5502 57.0206C23.0383 57.9216 23.3239 58.8817 23.4238 59.9024C23.5293 60.9808 23.5068 62.0606 23.4702 63.1389C23.4561 63.5557 23.3084 63.9498 23.1678 64.3384C22.7978 65.3605 22.6712 66.4769 22.0536 67.4018C21.4375 68.3267 20.8016 69.2418 20.125 70.1231C19.6439 70.751 18.9067 71.0551 18.2005 71.3521C17.0794 71.8223 15.9132 72.1841 14.7301 72.4488C12.3878 72.9725 10.04 72.8697 7.71182 72.3052C7.52754 72.2602 7.38546 72.194 7.39671 72.5009C7.46424 74.2691 7.55849 76.0359 7.54583 77.7858ZM8.12963 60.4261C8.10431 61.2539 8.17746 62.2295 8.21825 63.2037C8.25061 63.9639 8.28578 64.741 8.49679 65.4886C8.69514 66.1869 9.20157 66.5937 9.92323 66.6008C10.4283 66.605 10.9305 66.6514 11.4327 66.6838C13.1278 66.7964 14.8075 66.8091 16.3267 65.8476C16.8866 65.4928 17.4507 65.1606 17.6406 64.4651C17.891 63.5486 18.1654 62.6448 18.0922 61.665C18.012 60.5993 17.7363 59.6391 17.0006 58.8339C16.473 58.2567 15.9385 57.6865 15.3181 57.2092C14.3798 56.4856 13.3712 55.9521 12.1248 56.1379C11.956 56.1632 11.7815 56.152 11.6099 56.1618C10.5267 56.2238 9.47448 56.4335 8.46021 56.8263C8.21403 56.922 8.11837 57.0713 8.12259 57.3472C8.14088 58.3228 8.12963 59.2998 8.12963 60.4261Z" fill="#121212"/>
<path d="M26.4131 57.7484C26.4131 55.5213 26.4145 53.2927 26.4103 51.0655C26.4103 50.9065 26.3723 50.7474 26.3498 50.5883C26.278 50.0956 26.8492 48.9665 27.2839 48.7426C27.4625 48.6511 27.6566 48.6342 27.8522 48.6244C30.4082 48.5047 32.9643 48.454 35.5218 48.4076C36.1253 48.3963 36.6809 48.5273 37.2 48.8299C37.5475 49.0327 37.9203 49.1763 38.2917 49.3297C38.9739 49.6113 39.5197 50.0758 40.0008 50.6516C40.8308 51.6441 41.4709 52.7268 41.8282 53.9713C41.9408 54.364 41.8873 54.7709 41.8774 55.1721C41.8493 56.3758 41.7748 57.5753 41.568 58.7663C41.3682 59.9136 40.7281 60.8118 40.0008 61.6664C39.7926 61.9099 39.5605 62.1366 39.3214 62.3491C39.1554 62.497 39.1399 62.6068 39.2454 62.8137C39.9207 64.1427 40.9982 65.069 42.2334 65.8349C43.5895 66.6739 44.9624 67.4891 46.4381 68.1043C47.5269 68.559 48.672 68.7828 49.8537 68.8194C50.0099 68.8237 50.1421 68.7561 50.2799 68.7012C50.7582 68.514 51.2365 68.6491 51.3941 69.1306C51.7261 70.1414 51.8147 71.2001 51.6234 72.2489C51.5291 72.7655 51.1479 73.0584 50.5824 73.0809C48.5285 73.1625 46.4972 73.1668 44.4588 72.7092C43.2729 72.4431 42.3206 71.8519 41.3752 71.2085C40.1809 70.3962 39.0302 69.5177 37.8949 68.6238C36.4826 67.5116 35.2925 66.1714 34.1164 64.8199C34.0109 64.6988 33.9012 64.5805 33.8013 64.4552C33.4004 63.9583 32.9024 63.7175 32.2426 63.7527C31.3494 63.7992 31.483 63.6486 31.4731 64.5242C31.4633 65.466 31.4731 66.4065 31.6166 67.3412C31.6617 67.6341 31.6631 67.9368 31.656 68.2352C31.6391 69.0053 31.2537 69.4375 30.4912 69.5036C29.5515 69.5853 28.609 69.5473 27.6735 69.4516C27.1024 69.3924 26.6972 68.9053 26.6747 68.3155C26.641 67.4088 26.6438 66.4994 26.5636 65.597C26.3596 63.305 26.4806 61.0075 26.3864 58.7142C26.3737 58.3932 26.3849 58.0722 26.3849 57.7512C26.3962 57.7498 26.4046 57.7498 26.4131 57.7484ZM30.9189 57.1234C30.8514 57.7512 30.8725 58.4594 30.992 59.1661C31.0328 59.411 31.1201 59.5011 31.3648 59.4857C32.517 59.4125 33.6747 59.6124 34.824 59.4293C35.6034 59.3055 36.3532 59.121 36.8821 58.4523C37.1522 58.1116 37.2689 57.671 37.6023 57.3711C37.653 57.3261 37.66 57.2233 37.6727 57.1459C37.8134 56.2561 37.5672 55.5142 36.9229 54.861C35.3572 53.2758 33.4243 53.1055 31.3705 53.3392C31.2115 53.3575 31.1257 53.4264 31.1215 53.6024C31.0877 54.7498 30.909 55.8887 30.9189 57.1234Z" fill="#121212"/>
<path d="M45.3226 58.1539C45.3465 56.0239 45.7587 53.915 46.7321 51.93C46.7982 51.7962 46.8531 51.6512 46.946 51.5386C47.7028 50.6249 48.3963 49.6577 49.4443 49.0228C50.0985 48.6258 50.7146 48.1711 51.3941 47.8065C52.4351 47.2504 53.5281 46.9139 54.6971 46.8379C56.1419 46.745 57.5824 46.7253 58.9793 47.2293C59.3957 47.3799 59.7853 47.5629 60.1356 47.822C62.309 49.4198 63.6426 51.5639 64.2349 54.1853C64.4628 55.1904 64.7427 56.1872 64.7117 57.236C64.6921 57.9174 64.4754 58.2299 63.7974 58.358C62.7493 58.5565 61.6844 58.6255 60.6251 58.7424C59.0904 58.9113 57.5345 58.8845 56.0181 59.2407C54.8983 59.504 53.7448 59.5181 52.6067 59.6448C52.0145 59.7109 51.4236 59.7898 50.8328 59.87C50.7245 59.8855 50.536 59.8573 50.6021 60.0685C50.8694 60.9329 51.0973 61.81 51.6895 62.5378C52.0707 63.0066 52.5237 63.3473 53.0737 63.5782C54.0205 63.9752 55.0165 64.2216 56.0251 64.0751C56.7721 63.9667 57.5528 63.8119 58.1465 63.2276C58.7612 62.6223 59.5391 62.2239 60.1891 61.6579C60.4296 61.4482 60.7926 61.4594 61.1133 61.4496C62.0052 61.4214 62.8985 61.4735 63.7917 61.3834C64.4965 61.3116 64.7427 61.7903 64.5669 62.4674C64.2405 63.719 63.4246 64.5848 62.5003 65.3872C61.4031 66.3389 60.3804 67.3835 58.9947 67.9509C57.2616 68.6604 55.4638 68.911 53.6097 68.8082C52.9302 68.7702 52.3338 68.4591 51.7584 68.117C51.3941 67.9002 51.0143 67.7143 50.633 67.5257C49.1222 66.7781 48.0095 65.5928 47.0796 64.2145C46.1483 62.8335 45.7727 61.244 45.3788 59.6631C45.2621 59.1929 45.3465 58.7015 45.3226 58.1539ZM51.3167 55.5354C51.6262 55.579 51.9343 55.572 52.2424 55.5213C53.2833 55.3495 54.3272 55.1862 55.3794 55.1229C57.0506 55.0229 58.7078 54.8272 60.3607 54.5668C60.5182 54.5414 60.5534 54.4992 60.4957 54.3486C59.8965 52.7817 57.9889 51.2781 56.4471 51.3992C56.0589 51.4288 55.6692 51.4344 55.2795 51.4457C53.6927 51.4921 52.4126 52.1608 51.411 53.3744C50.9791 53.8981 50.6091 54.4668 50.4361 55.1384C50.37 55.3932 50.3953 55.572 50.7329 55.5368C50.9256 55.5199 51.1212 55.5354 51.3167 55.5354Z" fill="#121212"/>
<path d="M5.78312 24.1609C5.77608 24.2383 5.76202 24.3157 5.76342 24.3932C5.78874 27.3693 5.69027 30.3454 5.83798 33.3201C5.94208 35.4191 6.17841 37.5125 6.10386 39.6186C6.09682 39.8256 6.08275 40.0339 6.10245 40.2381C6.21358 41.3742 5.13039 42.1752 4.19209 42.1837C3.22987 42.1935 2.27047 42.0893 1.30544 42.1456C0.765251 42.1766 0.461394 41.8092 0.423412 41.2601C0.192705 37.8898 0.254602 34.5139 0.296805 31.1408C0.323533 29.0516 0.547206 26.9666 0.5669 24.8746C0.590815 22.2434 0.521884 19.6122 0.62739 16.9824C0.680846 15.6408 0.768065 14.2992 0.862317 12.9589C0.889045 12.5718 0.993144 12.1903 1.05926 11.8059C1.07614 11.7116 1.11272 11.6257 1.1929 11.5736C1.61493 11.2977 2.02148 10.9823 2.56026 10.988C3.27067 10.995 3.98107 11.0119 4.69289 11.0175C5.03051 11.0204 5.26121 11.1992 5.41314 11.4723C5.9041 12.3451 6.52025 13.1307 7.08998 13.9486C8.09018 15.3832 8.89484 16.9346 9.73467 18.4635C11.133 21.0102 12.4638 23.5921 13.7945 26.1754C14.467 27.4805 15.2632 28.7208 15.899 30.0483C15.9286 30.1089 15.9708 30.1624 16.0059 30.2145C16.1016 30.1919 16.0819 30.1258 16.0805 30.0737C15.944 26.3754 16.0144 22.6756 16.0369 18.9759C16.0481 17.1795 15.8751 15.3958 15.7766 13.6079C15.7162 12.5056 15.7302 11.4019 15.7485 10.2996C15.7612 9.50978 16.1945 9.09729 16.94 8.89457C18.1175 8.57499 19.2907 8.83544 20.4625 8.83403C21.0956 8.83403 21.1982 8.98326 21.3178 9.60129C21.5359 10.7304 21.7005 11.8622 21.5865 13.0237C21.5007 13.8923 21.5893 14.7694 21.5978 15.6422C21.647 20.319 21.5851 24.9957 21.6118 29.671C21.6259 32.0376 21.7089 34.4027 21.6709 36.7706C21.6442 38.3924 21.5021 40.0044 21.1912 41.6008C21.1307 41.912 20.983 42.0288 20.6848 42.0992C19.5383 42.3695 18.3848 42.3864 17.22 42.2991C16.2817 42.2287 15.591 41.8261 15.2308 40.918C14.3868 38.7866 13.2093 36.8255 12.0938 34.8377C10.2622 31.5744 8.47141 28.2872 6.45273 25.1323C6.24453 24.8071 6.05884 24.4678 5.8633 24.1355C5.83517 24.1426 5.80985 24.151 5.78312 24.1609Z" fill="#121212"/>
<path d="M70.1432 25.0914C70.1432 21.8506 70.1376 18.6084 70.1517 15.3677C70.1531 15.0213 70.0419 14.9355 69.7212 14.9552C68.7562 15.0129 67.7968 14.8975 66.8345 14.844C65.8343 14.7876 65.3575 14.316 65.2688 13.3207C65.1985 12.5309 65.0986 11.744 65.1113 10.9485C65.1253 10.0433 65.4475 9.63787 66.3295 9.47879C67.597 9.25073 68.7998 8.77911 70.0532 8.50036C70.2811 8.44968 70.2558 8.29341 70.2544 8.13151C70.2417 6.26898 70.2065 4.40785 70.2304 2.54532C70.2403 1.76539 70.478 1.06149 71.3066 0.712349C71.7722 0.515255 72.2224 0.297044 72.7359 0.244955C73.5897 0.159079 74.4324 -0.029568 75.3004 0.00703508C75.8884 0.0323757 76.3681 0.48006 76.3568 1.0812C76.3245 2.73537 76.3554 4.39096 76.2021 6.04232C76.1571 6.52098 76.1852 7.00667 76.1725 7.48955C76.1669 7.69087 76.2415 7.74718 76.4412 7.7134C77.6975 7.50504 78.9663 7.44732 80.2352 7.36567C80.518 7.34736 80.7979 7.2643 81.0779 7.20377C81.2453 7.16857 81.4099 7.11508 81.5787 7.07847C82.2455 6.93206 82.7575 7.08833 83.1782 7.69509C83.5692 8.25963 83.7971 8.83542 83.7901 9.51539C83.7845 10.101 83.8182 10.6867 83.7718 11.2723C83.7338 11.751 83.4693 12.0495 83.0347 12.2156C82.9812 12.2367 82.9277 12.262 82.8715 12.2691C80.9499 12.507 79.1675 13.3038 77.2782 13.6755C77.0532 13.7191 76.8309 13.7881 76.6044 13.8064C76.309 13.8289 76.2401 13.9655 76.2387 14.2513C76.2302 16.8951 76.2612 19.5404 76.1627 22.1801C76.1008 23.8371 76.2443 25.4912 76.1472 27.1398C76.0797 28.304 76.2246 29.457 76.1599 30.61C76.1177 31.3745 76.2105 32.1206 76.2429 32.8738C76.2569 33.2243 76.3695 33.5679 76.2457 33.9226C76.2161 34.0071 76.2527 34.131 76.2935 34.2211C76.8478 35.4388 77.6018 36.4877 78.8186 37.1282C78.9593 37.2028 79.1112 37.2732 79.266 37.3C79.816 37.3971 80.1494 37.7716 80.4125 38.2108C80.6305 38.5768 80.5588 39.0062 80.4884 39.392C80.3421 40.2015 80.3027 41.0264 80.0397 41.8219C79.7837 42.5961 79.3827 42.9664 78.5584 42.9946C77.9563 43.0157 77.3767 42.8735 76.7859 42.8073C76.2457 42.7468 75.735 42.6313 75.2891 42.354C74.4352 41.8233 73.549 41.3559 72.7977 40.6477C71.979 39.8763 71.4684 38.9626 71.1054 37.9349C70.9563 37.5125 70.8311 37.0817 70.6848 36.6594C70.3781 35.7711 70.2445 34.8644 70.267 33.9184C70.3359 30.9733 70.1291 28.0337 70.1432 25.0914Z" fill="#121212"/>
<path d="M66.5912 27.5649C66.5138 29.1712 66.6193 30.7747 66.6643 32.3796C66.6812 32.9878 66.6502 33.6002 66.5194 34.1957C66.352 34.9559 65.8273 35.4895 65.1155 35.6486C64.1167 35.871 63.0982 36.0709 62.0558 36.0357C61.0992 36.0019 60.507 35.3543 60.514 34.4097C60.5253 32.8611 60.4774 31.3125 60.4887 29.7639C60.4985 28.4223 60.6913 27.0835 60.5801 25.7404C60.5211 25.0224 60.5548 24.2918 60.3227 23.5935C59.8768 22.2547 58.9863 21.6226 57.5711 21.8886C57.3826 21.9238 57.2363 22.0111 57.09 22.1308C56.2811 22.7967 55.8661 23.692 55.6228 24.6789C55.3752 25.6855 55.2936 26.7146 55.2331 27.7479C55.1079 29.8554 54.8913 31.9559 54.7056 34.0577C54.6788 34.3661 54.6676 34.6772 54.6718 34.9869C54.6788 35.467 54.4552 35.771 54.0388 35.9991C53.2777 36.4158 52.4407 36.4623 51.6107 36.558C51.3828 36.5848 51.1535 36.5918 50.9256 36.6101C50.166 36.672 49.54 36.1427 49.5991 35.3825C49.7679 33.2187 49.7187 31.0436 49.917 28.8869C50.0633 27.2904 49.9578 25.701 50.0141 24.1102C50.0281 23.7202 49.9845 23.326 50.0225 22.9403C50.1125 22.0435 49.8424 21.2523 49.4373 20.471C49.163 19.9416 48.7761 19.6009 48.2106 19.4559C47.8294 19.3574 47.4777 19.1941 47.1331 19.0111C46.9263 18.9013 46.7997 18.7548 46.8348 18.4888C46.9685 17.4766 47.081 16.4615 47.2175 15.4493C47.2976 14.8496 47.8181 14.4118 48.4188 14.3766C49.4331 14.316 50.3995 14.5624 51.3603 14.8327C51.6698 14.92 51.9427 15.1086 52.1776 15.3296C52.7122 15.8336 53.2355 16.3517 53.6083 16.9923C53.756 17.2457 53.8559 17.2386 54.0669 17.0486C54.5452 16.6192 55.0713 16.2489 55.6059 15.8942C55.8478 15.7337 56.1179 15.6168 56.3993 15.576C57.9355 15.3564 59.4716 15.1776 60.9965 15.6591C62.4033 16.1025 63.6792 16.7614 64.564 17.9834C64.9382 18.5 65.2885 19.0364 65.6416 19.57C66.0242 20.1486 66.1143 20.8286 66.2254 21.4987C66.5602 23.5076 66.7445 25.525 66.5912 27.5649Z" fill="#121212"/>
<path d="M152.801 62.9799C152.686 64.7847 152.804 66.5501 152.844 68.3169C152.86 68.9828 152.829 69.6529 152.683 70.3033C152.496 71.1269 151.92 71.6942 151.156 71.8688C150.069 72.1194 148.96 72.3291 147.824 72.301C147.161 72.2841 146.704 71.9532 146.302 71.4901C146.162 71.3296 146.106 71.1254 146.109 70.9129C146.139 68.6632 145.994 66.4121 146.13 64.1667C146.216 62.742 146.223 61.3243 146.123 59.901C146.065 59.0676 145.846 58.2961 145.359 57.6147C144.996 57.1093 144.472 56.8559 143.871 56.7841C143.173 56.7011 142.563 56.8362 142.036 57.3951C141.372 58.1018 141.005 58.9366 140.775 59.8433C140.502 60.9146 140.417 62.0127 140.346 63.115C140.206 65.2225 140.033 67.3272 139.812 69.4276C139.75 70.0203 139.739 70.6186 139.721 71.2155C139.707 71.6731 139.504 71.9842 139.106 72.2123C138.227 72.7177 137.249 72.7641 136.281 72.8697C136.065 72.8937 135.847 72.8993 135.63 72.919C134.802 72.995 134.112 72.4066 134.167 71.5731C134.298 69.5797 134.299 67.5778 134.46 65.5899C134.688 62.7574 134.603 59.9249 134.613 57.0938C134.616 56.1731 134.112 55.3847 133.571 54.6668C133.301 54.3092 132.838 54.212 132.417 54.091C132.05 53.9854 131.715 53.8136 131.387 53.6236C131.199 53.5138 131.121 53.3575 131.15 53.1351C131.293 52.0074 131.422 50.8784 131.572 49.7521C131.641 49.234 132.137 48.6864 132.649 48.6498C134.078 48.5484 135.491 48.7047 136.726 49.4691C137.494 49.9436 138.068 50.6813 138.549 51.4584C138.707 51.7118 138.79 51.7526 139.053 51.5457C139.824 50.9403 140.519 50.1632 141.519 49.9605C144.435 49.372 147.21 49.6057 149.626 51.5696C150.17 52.0131 150.646 52.5269 150.937 53.1843C150.992 53.3082 151.062 53.4363 151.158 53.5307C151.858 54.2275 152.189 55.1004 152.309 56.0535C152.52 57.7358 152.89 59.404 152.802 61.1173C152.774 61.7523 152.801 62.3858 152.801 62.9799Z" fill="#121212"/>
<path d="M181.13 37.1141C180.092 37.0198 179.034 36.9649 178.121 36.3961C177.382 35.9358 176.835 35.2572 176.372 34.5266C176.198 34.2506 176.092 34.2534 175.864 34.4632C175.409 34.8827 174.894 35.2305 174.383 35.5796C174.134 35.7499 173.853 35.8682 173.56 35.9147C171.587 36.2342 169.635 36.3046 167.767 35.3952C166.847 34.9475 165.99 34.4013 165.402 33.5566C165.006 32.9864 164.585 32.4275 164.231 31.8278C163.873 31.2238 163.813 30.5284 163.676 29.8526C163.133 27.1679 163.342 24.4565 163.351 21.7521C163.356 20.8328 163.223 19.9205 163.257 19.0012C163.278 18.4381 163.287 17.8736 163.398 17.3217C163.55 16.5629 164.083 16.0631 164.764 15.8703C165.661 15.6169 166.608 15.5352 167.545 15.4831C168.198 15.4465 168.715 15.9984 168.759 16.6389C168.936 19.2138 169.004 21.7971 169.233 24.3692C169.312 25.2491 169.36 26.1318 169.441 27.0117C169.523 27.8944 169.803 28.6996 170.52 29.274C171.069 29.7133 172.245 29.8301 172.705 29.4782C173.227 29.0783 173.659 28.5912 173.933 27.976C174.34 27.0609 174.549 26.0938 174.618 25.1097C174.797 22.5574 175.018 20.0078 175.255 17.4611C175.288 17.119 175.285 16.7727 175.292 16.4292C175.3 16.0378 175.483 15.7647 175.818 15.5634C176.627 15.0777 177.537 15.0326 178.436 14.9397C178.63 14.92 178.824 14.9129 179.018 14.8961C179.801 14.8257 180.431 15.3508 180.37 16.1293C180.203 18.2931 180.238 20.4668 180.047 22.6249C179.95 23.7272 179.981 24.8239 179.958 25.922C179.936 26.9891 179.951 28.0563 179.944 29.1234C179.938 30.0582 180.384 30.8226 180.888 31.549C181.123 31.8883 181.555 31.9812 181.94 32.091C182.275 32.1868 182.577 32.3473 182.88 32.5092C183.064 32.6077 183.171 32.7471 183.14 32.9822C183.011 33.9719 182.905 34.9644 182.766 35.9527C182.659 36.7087 182.174 37.1029 181.401 37.1099C181.313 37.1141 181.221 37.1141 181.13 37.1141Z" fill="#121212"/>
<path d="M78.9466 26.9877C78.8636 24.3579 79.3236 22.0688 80.2535 19.8966C80.9414 18.2889 82.0162 16.95 83.5298 16.011C83.8928 15.7858 84.2881 15.6323 84.6805 15.4747C85.1279 15.2959 85.5738 15.1157 85.9888 14.8679C86.3307 14.6652 86.702 14.5765 87.1058 14.5821C88.8122 14.6088 90.5228 14.561 92.2052 14.9439C94.2436 15.4071 95.701 16.5756 96.6871 18.424C97.6198 20.1725 97.6733 22.0463 97.6789 23.944C97.6803 24.1524 97.6958 24.3481 97.7732 24.548C98.0067 25.1463 97.7281 25.8038 97.15 26.0741C96.7997 26.2374 96.4227 26.2641 96.0485 26.3261C94.6038 26.564 93.1604 26.8005 91.6988 26.9455C89.6815 27.1454 87.66 27.3129 85.6442 27.5199C85.1209 27.5734 84.6004 27.6663 84.077 27.7268C83.8759 27.7494 83.8463 27.8352 83.866 28.0225C83.994 29.2529 84.6172 30.1694 85.5738 30.924C86.9145 31.9798 88.4295 32.3923 90.0867 32.1474C91.1319 31.9939 91.9563 31.3717 92.5682 30.5002C92.8453 30.106 93.1098 29.7034 93.3672 29.298C93.7105 28.7574 94.2366 28.8277 94.7529 28.8714C95.4379 28.9291 96.1146 29.0516 96.7912 29.1727C97.5635 29.3106 98.0207 30.0286 97.7872 30.7818C97.7675 30.848 97.7464 30.9155 97.7127 30.9747C97.0782 32.077 96.5057 33.2187 95.6152 34.1507C95.5435 34.2253 95.4703 34.2985 95.3887 34.3604C93.332 35.933 91.0658 36.8438 88.4253 36.5538C88.0849 36.5158 87.7402 36.4679 87.411 36.3764C86.3096 36.0667 85.1532 35.9879 84.0799 35.55C83.4609 35.2966 82.8897 34.9714 82.3186 34.6251C80.9301 33.7818 80.0945 32.5218 79.6036 31.0253C79.1492 29.6386 78.7905 28.2224 78.9466 26.9877ZM83.935 23.6526C83.9237 23.654 83.9575 23.6512 83.9912 23.6484C86.4967 23.3626 89.0161 23.3288 91.5328 23.2317C92.2306 23.2049 92.9297 23.2162 93.6232 23.1064C93.7892 23.0797 93.9651 23.0613 93.8891 22.8206C93.522 21.6592 92.9705 20.5991 91.9169 19.929C90.821 19.2321 89.6084 18.8534 88.2888 19.0364C87.4546 19.1519 86.6078 19.2504 85.9311 19.8558C84.8395 20.83 84.1277 22.0351 83.6916 23.4189C83.6269 23.6245 83.7183 23.6653 83.935 23.6526Z" fill="#121212"/>
<path d="M100.861 36.3961C100.829 35.5683 100.858 34.5167 101.09 33.4749C101.27 32.6654 101.865 32.367 102.631 32.6753C104.427 33.4003 106.308 33.7663 108.237 33.6284C109.29 33.5524 110.133 32.9273 110.59 31.9404C110.802 31.4829 110.793 30.9747 110.449 30.5087C110.067 29.9892 109.619 29.5626 109.048 29.2656C108.896 29.1867 108.744 29.1023 108.605 29.0023C107.778 28.4181 106.838 28.1759 105.856 27.9999C104.656 27.786 103.503 27.403 102.458 26.7526C101.77 26.3247 101.255 25.7362 100.905 24.9999C100.124 23.3612 99.6779 21.6451 99.9297 19.8276C100.214 17.7806 100.919 15.9505 102.438 14.4132C103.693 13.1433 105.136 12.3761 106.786 11.8467C108.46 11.3103 110.161 11.1287 111.905 11.2414C112.443 11.2766 112.977 11.1597 113.517 11.2343C114.401 11.3554 115.018 12.1466 114.874 13.0335C114.72 13.9725 114.553 14.9087 114.371 15.8421C114.204 16.6966 113.461 17.057 112.679 16.6614C112.364 16.5024 112.036 16.4038 111.696 16.3756C110.362 16.2658 109.037 16.301 107.76 16.7515C106.811 17.0852 106.015 17.6582 105.372 18.4353C105.195 18.6493 105.109 18.9196 105.035 19.1842C104.832 19.9163 104.81 20.6821 104.953 21.4044C105.118 22.2406 105.81 22.6573 106.577 22.9318C107.257 23.1768 107.971 23.25 108.678 23.3598C109.643 23.509 110.475 24.037 111.39 24.3256C112.938 24.8141 114.024 25.8699 115.017 27.0989C116.034 28.3575 116.42 29.7766 116.382 31.3576C116.366 32.0122 116.387 32.6668 116.4 33.3215C116.42 34.3013 116.099 35.1713 115.542 35.9597C115.172 36.4834 114.896 37.0705 114.46 37.5519C113.698 38.3938 112.74 38.9077 111.673 39.2455C109.742 39.8579 107.771 39.9973 105.765 39.7552C105.312 39.7003 104.85 39.6848 104.393 39.6848C103.598 39.6848 102.816 39.582 102.037 39.4539C101.858 39.4243 101.684 39.3554 101.512 39.2948C101.071 39.1357 100.861 38.8148 100.862 38.3474C100.864 37.7758 100.861 37.2014 100.861 36.3961Z" fill="#121212"/>
<path d="M67.1131 71.7393C67.1328 71.179 67.0765 70.4779 67.1567 69.7782C67.1876 69.5107 67.3142 69.3559 67.5421 69.2179C68.0809 68.8899 68.6507 68.8842 69.2387 68.9828C70.5033 69.1954 71.7694 69.4051 73.0594 69.3432C73.9541 69.301 74.8417 69.2066 75.6914 68.9068C76.3427 68.6773 76.973 67.7552 77.0011 67.0245C77.025 66.4079 76.8928 65.8546 76.4567 65.3774C75.894 64.7608 75.2778 64.2525 74.4901 63.9231C73.6671 63.5782 72.8188 63.3881 71.9537 63.2079C70.8297 62.9742 69.7381 62.6223 68.7491 62.0141C68.0275 61.5707 67.4915 60.9583 67.1314 60.1868C66.3577 58.5312 65.9159 56.8038 66.1903 54.9751C66.4899 52.9816 67.1764 51.1923 68.6535 49.6831C69.9195 48.3893 71.3797 47.608 73.0552 47.073C74.7306 46.538 76.4314 46.3635 78.1743 46.4747C78.7103 46.5085 79.2463 46.3944 79.7865 46.469C80.6502 46.5887 81.2649 47.3771 81.1257 48.2499C80.9752 49.1889 80.8063 50.1251 80.6249 51.0599C80.4701 51.8539 80.0129 52.0904 79.1984 52.0116C77.6271 51.8596 76.0487 51.6568 74.4746 52.0412C73.9175 52.1777 73.8669 52.1496 73.1776 52.448C72.9384 52.5522 72.6571 52.8295 72.4601 52.9478C72.3068 53.0393 72.1886 53.1379 72.093 53.2463C71.3713 54.067 71.391 55.0046 71.6878 55.9676C71.896 56.6461 72.2899 57.2318 72.7584 57.7569C73.1438 58.1891 73.639 58.434 74.227 58.4875C74.8671 58.5453 75.4931 58.686 76.0909 58.9296C76.61 59.1422 77.1179 59.3914 77.651 59.5603C79.197 60.0544 80.2788 61.1131 81.272 62.3421C82.2905 63.6035 82.6661 65.024 82.6281 66.6036C82.6126 67.2582 82.6323 67.9128 82.645 68.5675C82.6647 69.5487 82.3397 70.4159 81.7812 71.2029C81.4042 71.7365 81.1243 72.3348 80.6755 72.8191C79.9131 73.6441 78.9635 74.1466 77.9084 74.4817C75.9882 75.0899 74.0286 75.2292 72.0339 74.9899C71.6034 74.9378 71.1659 74.9181 70.7312 74.9181C69.9139 74.9195 69.1078 74.8238 68.306 74.6901C68.1273 74.6605 67.9529 74.5957 67.7799 74.5352C67.3241 74.3761 67.106 74.0495 67.1089 73.5652C67.1159 73.0035 67.1131 72.4404 67.1131 71.7393Z" fill="#121212"/>
<path d="M85.2728 69.857C85.246 68.949 85.2714 68.0466 85.4669 67.1512C85.6132 66.4825 86.1042 66.2079 86.7456 66.4642C88.2635 67.0709 89.8447 67.3778 91.4737 67.2962C92.4275 67.2483 93.1449 66.7077 93.5881 65.8546C93.7527 65.5378 93.6683 65.2183 93.4572 64.9184C92.7834 63.9597 91.8085 63.3909 90.7858 62.9334C88.8952 62.0873 87.4448 60.7597 86.2913 59.0647C85.1251 57.3528 85.0815 55.5283 85.7581 53.6446C86.0254 52.8999 86.3982 52.1946 86.8286 51.5301C87.449 50.5714 88.3367 49.9196 89.3256 49.3776C90.0585 48.9749 90.814 48.844 91.6397 48.9327C92.3895 49.0115 93.1463 49.0242 93.9004 49.0495C94.7458 49.0791 95.5491 49.3015 96.3425 49.5704C96.7293 49.7028 96.9235 50.0322 96.953 50.4531C97.0065 51.2359 96.8391 51.9848 96.6281 52.7239C96.531 53.0646 96.3158 53.3631 96.1061 53.6432C95.8417 53.9952 95.4717 54.1163 95.0356 53.9614C94.7444 53.8586 94.4406 53.7854 94.1606 53.6573C93.3137 53.2702 92.4528 53.4433 91.5947 53.5686C91.1671 53.632 90.8899 53.9727 90.662 54.288C90.2175 54.9032 89.8489 55.5621 90.0853 56.3871C90.202 56.7953 90.4243 57.1135 90.7591 57.3528C91.4301 57.8315 92.0885 58.3355 92.7947 58.7564C93.2406 59.0225 93.7555 59.183 94.2535 59.3435C96.0668 59.9305 97.1823 61.2764 98.0826 62.8545C98.378 63.3712 98.4765 63.9569 98.4962 64.5453C98.5243 65.4168 98.5342 66.2896 98.5426 67.161C98.5497 67.8847 98.2936 68.5308 97.9194 69.1362C97.7324 69.4375 97.5284 69.7303 97.3413 70.0316C96.697 71.0677 95.7432 71.6801 94.6108 72.0518C92.9283 72.605 91.2107 72.7303 89.4593 72.5178C89.0738 72.4713 88.6827 72.4671 88.2945 72.4629C87.6164 72.4558 86.9468 72.3812 86.2814 72.2658C85.495 72.1292 85.2756 71.8547 85.2742 71.0621C85.2728 70.6609 85.2728 70.2582 85.2728 69.857Z" fill="#121212"/>
<path d="M108.432 64.2187C108.56 65.8039 108.543 67.6186 108.583 69.4318C108.597 70.0991 108.632 70.7622 108.706 71.4239C108.751 71.8279 108.729 72.2263 108.614 72.6177C108.522 72.9288 108.324 73.1513 108.006 73.2076C106.837 73.4131 105.664 73.5638 104.475 73.3991C104.285 73.3723 104.091 73.3301 103.912 73.2611C103.421 73.0724 103.176 72.7289 103.117 72.1757C102.854 69.6669 102.963 67.1526 102.944 64.6397C102.929 62.366 102.932 60.0938 102.929 57.8202C102.927 57.0037 103.295 56.5912 104.098 56.5785C105.099 56.5616 106.102 56.5729 107.105 56.5997C107.765 56.618 108.19 57.0966 108.19 57.7695C108.19 59.8461 108.265 61.9212 108.432 64.2187Z" fill="#121212"/>
<path d="M104.853 48.1669C105.294 48.1486 105.816 48.2077 106.333 48.3907C107.955 48.9623 108.694 51.0064 107.793 52.4818C107.639 52.7352 107.475 52.9858 107.314 53.235C106.586 54.3598 105.465 54.6189 104.247 54.5991C103.555 54.5879 103.001 54.2134 102.714 53.5996C102.332 52.7873 101.951 51.9581 101.951 51.0191C101.951 49.1594 102.925 48.1626 104.853 48.1669Z" fill="#121212"/>
<path d="M131.583 38.4107C130.441 38.2671 128.889 38.3361 127.358 38.094C127.107 38.0545 126.867 37.9842 126.64 37.8729C126.392 37.7533 126.216 37.5477 126.225 37.2831C126.246 36.6186 125.956 36.009 125.938 35.3515C125.923 34.8461 125.893 34.3421 125.931 33.8382C125.984 33.1103 126.413 32.7443 127.132 32.8752C127.669 32.9738 128.184 33.1891 128.717 33.3158C130.09 33.6453 131.473 33.8269 132.887 33.5721C134.613 33.2609 135.118 31.7363 134.866 30.3383C134.737 29.6218 134.122 29.2008 133.481 28.9024C132.527 28.4589 131.497 28.2886 130.474 28.0816C129.452 27.8747 128.458 27.5551 127.564 26.9906C126.867 26.5513 126.409 25.9192 126.089 25.1759C125.544 23.9032 125.202 22.5771 125.369 21.1876C125.59 19.356 126.18 17.7103 127.526 16.3222C128.654 15.1579 129.979 14.4906 131.463 13.9908C132.759 13.5544 134.081 13.4432 135.426 13.4882C135.835 13.5023 136.242 13.6009 136.635 13.7346C137.04 13.874 137.266 14.1964 137.297 14.6328C137.348 15.3677 137.379 16.0997 137.256 16.8318C137.14 17.5286 136.726 17.913 136.042 18.0411C134.975 18.241 133.89 18.4057 132.857 18.7309C131.701 19.0941 130.706 19.7488 130.201 20.9482C130.072 21.2551 130.042 21.5423 130.228 21.8337C130.27 21.9013 130.311 21.9745 130.329 22.0519C130.588 23.1683 131.469 23.4893 132.43 23.6245C133.569 23.785 134.679 24.0271 135.76 24.4255C137.083 24.914 138.137 25.7109 138.887 26.9314C139.554 28.014 140.154 29.1178 140.388 30.3792C140.592 31.4829 140.545 32.5556 140.018 33.5988C139.593 34.4379 139.264 35.3262 138.635 36.0456C137.751 37.055 136.611 37.6308 135.34 37.9898C134.239 38.3023 133.119 38.4403 131.583 38.4107Z" fill="#121212"/>
<path d="M190.887 38.4079C189.76 38.2657 188.209 38.3361 186.678 38.0911C186.426 38.0503 186.187 37.9799 185.961 37.8673C185.727 37.7519 185.554 37.5618 185.557 37.3084C185.565 36.6017 185.266 35.9442 185.26 35.2403C185.256 34.7588 185.222 34.276 185.266 33.7959C185.328 33.1187 185.726 32.795 186.402 32.8597C186.516 32.871 186.632 32.885 186.74 32.9217C187.424 33.1511 188.134 33.2778 188.826 33.4608C189.566 33.6565 190.289 33.6622 191.029 33.6776C191.491 33.6875 191.944 33.6256 192.394 33.534C193.265 33.3595 193.909 32.6528 194.14 31.7926C194.588 30.1257 193.837 29.2782 192.359 28.7137C191.673 28.4519 190.96 28.2773 190.233 28.1675C189.366 28.0365 188.545 27.7564 187.733 27.434C186.592 26.9821 185.807 26.1796 185.359 25.0421C184.903 23.8891 184.564 22.7038 184.682 21.4536C184.859 19.5826 185.398 17.8862 186.747 16.446C188.722 14.3357 191.202 13.636 193.94 13.4784C194.562 13.4432 195.173 13.515 195.776 13.6755C196.351 13.8289 196.59 14.1246 196.631 14.713C196.683 15.4479 196.705 16.18 196.569 16.9092C196.454 17.5216 196.044 17.9116 195.428 18.0312C194.362 18.2396 193.277 18.3973 192.242 18.714C191.059 19.0772 190.04 19.7305 189.525 20.9567C189.402 21.2509 189.364 21.5268 189.544 21.8084C189.587 21.8746 189.625 21.9506 189.644 22.0266C189.909 23.1472 190.784 23.4893 191.765 23.6259C192.893 23.7821 193.99 24.0243 195.062 24.4157C196.424 24.914 197.492 25.7376 198.254 26.9948C198.908 28.0732 199.499 29.1698 199.723 30.42C199.913 31.4758 199.887 32.5106 199.384 33.5101C198.987 34.2985 198.685 35.1361 198.132 35.8372C197.234 36.9733 196.023 37.6026 194.659 37.9898C193.557 38.3051 192.439 38.4403 190.887 38.4079Z" fill="#121212"/>
<path d="M161.022 25.3533C161.193 27.1637 160.933 28.6926 160.469 30.1975C160.217 31.0127 159.737 31.6743 159.155 32.2698C158.177 33.2708 157.238 34.321 156.104 35.146C155.282 35.7443 154.39 36.2568 153.444 36.6397C152.511 37.017 151.5 36.9283 150.522 37.0029C149.819 37.0564 149.103 37.1099 148.402 36.9198C148.122 36.8438 147.858 36.7354 147.604 36.6059C145.704 35.6373 143.992 34.4083 142.676 32.7147C141.986 31.825 141.631 30.7283 141.18 29.7006C140.451 28.0394 140.454 26.288 140.587 24.5283C140.663 23.5287 140.807 22.5362 141.305 21.6423C142.181 20.0683 143.204 18.6084 144.635 17.4752C145.106 17.1021 145.633 16.8459 146.198 16.6277C146.791 16.3968 147.337 16.0448 147.907 15.752C148.824 15.279 149.779 14.9749 150.831 14.965C152.082 14.9538 153.327 14.9101 154.559 15.2128C155.624 15.4747 156.55 15.9674 157.307 16.7586C157.672 17.1401 158.04 17.516 158.467 17.8313C158.9 18.1509 159.252 18.5352 159.351 19.0984C159.369 19.2054 159.439 19.3109 159.507 19.401C160.552 20.7948 160.977 22.3898 161.022 24.1059C161.033 24.5959 161.022 25.0886 161.022 25.3533ZM155.604 25.5743C155.624 24.8408 155.606 24.2341 155.478 23.6343C155.218 22.425 154.784 21.3917 153.604 20.7089C152.781 20.2331 151.986 20.0683 151.071 20.0641C149.399 20.0571 148.085 20.6779 147.156 22.0717C146.371 23.2472 145.79 24.4537 145.946 25.9685C146.058 27.0553 146.133 28.0999 146.835 28.991C146.87 29.0361 146.895 29.0882 146.921 29.1403C147.068 29.4359 147.286 29.6668 147.555 29.8512C148.028 30.1764 148.503 30.5002 149.021 30.748C149.413 30.9352 149.813 31.1098 150.255 31.1619C151.376 31.2956 152.42 31.0802 153.392 30.5059C154.198 30.03 154.842 29.4106 155.095 28.4786C155.365 27.4889 155.769 26.5161 155.604 25.5743Z" fill="#121212"/>
<path d="M131.311 60.2192C131.484 61.9634 131.213 63.4557 130.774 64.9297C130.502 65.8434 129.93 66.5515 129.277 67.2033C128.491 67.9889 127.731 68.8026 126.876 69.5178C126.488 69.843 126.098 70.1583 125.628 70.3624C125.101 70.5919 124.663 70.9763 124.134 71.21C123.137 71.6506 122.068 71.5872 121.022 71.6689C120.33 71.7224 119.627 71.7717 118.935 71.6041C118.597 71.5225 118.281 71.3859 117.977 71.2268C116.144 70.2611 114.475 69.0715 113.211 67.4103C112.541 66.5318 112.187 65.4647 111.752 64.4553C111.042 62.8039 111.03 61.0667 111.178 59.3168C111.265 58.2947 111.417 57.2825 111.943 56.3758C112.883 54.7583 113.94 53.2392 115.501 52.1454C115.87 51.8863 116.268 51.6935 116.701 51.5625C117.154 51.426 117.531 51.1275 117.943 50.9051C119.133 50.2589 120.371 49.8746 121.747 49.8943C122.839 49.9098 123.92 49.9154 124.989 50.173C126.022 50.4222 126.911 50.9149 127.641 51.6794C127.991 52.0454 128.343 52.4002 128.747 52.7071C129.183 53.0379 129.561 53.4138 129.658 53.9938C129.677 54.1008 129.747 54.205 129.816 54.2951C130.85 55.6705 131.251 57.2487 131.306 58.9367C131.325 59.4294 131.311 59.9235 131.311 60.2192ZM125.96 60.3107C126.035 59.1295 125.825 58.0483 125.385 57.0051C125.205 56.5786 124.951 56.228 124.553 55.9845C122.637 54.8075 123.373 54.9737 121.217 54.9638C121.183 54.9638 121.148 54.9638 121.114 54.9652C120.112 54.9863 119.229 55.3284 118.475 55.9817C117.442 56.8784 116.939 58.1032 116.445 59.3294C116.417 59.3998 116.422 59.4871 116.425 59.5673C116.463 60.4388 116.505 61.3088 116.543 62.1802C116.552 62.3675 116.593 62.5392 116.694 62.7011C116.918 63.0615 117.137 63.4248 117.345 63.7936C117.534 64.1273 117.743 64.4398 118.075 64.6467C118.533 64.9325 118.984 65.2268 119.457 65.483C119.87 65.7068 120.312 65.8631 120.789 65.9166C122.073 66.0616 123.214 65.7012 124.248 64.9564C124.762 64.5862 125.175 64.1244 125.372 63.5149C125.714 62.4576 126.109 61.4074 125.96 60.3107Z" fill="#121212"/>
<g clip-path="url(#clip0)">
<path d="M180.808 76.9673L174.713 73.8374C174.623 73.7899 174.506 73.8245 174.459 73.9151L170.805 80.5029C170.727 80.641 170.525 80.6324 170.46 80.4856L167.895 74.485C167.654 73.9194 167.004 73.6561 166.436 73.8935L160.694 76.2981C160.556 76.3542 160.41 76.242 160.431 76.0909L161.529 68.6138C161.542 68.5275 161.495 68.4411 161.408 68.4066L155.473 66.0495C155.335 65.9934 155.309 65.8121 155.426 65.7214L160.569 61.6591C161.008 61.3094 161.129 60.6921 160.845 60.2042L157.591 54.5792C157.513 54.441 157.621 54.2727 157.78 54.2899L164.038 55.0411C164.193 55.0583 164.34 54.9547 164.374 54.7993L165.967 47.2186C165.997 47.0632 166.191 47.0114 166.298 47.128L170.964 52.2911C171.171 52.5199 171.528 52.5329 171.752 52.317L176.779 47.469C176.891 47.3611 177.08 47.4258 177.102 47.5813L178.199 55.2612C178.264 55.7016 178.669 56.0081 179.108 55.952L184.918 55.1922C185.069 55.1706 185.181 55.326 185.116 55.4642L182.344 61.3526C182.095 61.8836 182.211 62.5139 182.637 62.9197L186.61 66.723C186.718 66.8266 186.674 67.0079 186.528 67.0467L181.686 68.4325C181.608 68.4541 181.552 68.5232 181.548 68.6052L181.083 76.8075C181.075 76.9457 180.928 77.032 180.808 76.9673Z" fill="#FAC2D5"/>
<path d="M177.933 61.0632C177.717 61.0676 177.679 60.7826 177.623 60.5409C177.567 60.3035 177.537 59.971 177.519 59.8113C177.438 59.1206 177.433 58.4255 177.399 57.7305L177.27 57.9161C177.214 58.0111 177.162 58.0975 177.119 58.1881C177.003 58.4126 176.887 58.6371 176.766 58.8616C176.732 58.9263 176.693 58.9954 176.658 59.0601C176.564 59.2328 176.318 59.2285 176.224 59.0601C176.185 58.9954 176.151 58.9263 176.116 58.8616C176.009 58.663 175.905 58.4644 175.802 58.2658C175.755 58.1752 175.703 58.0931 175.647 57.9938C175.6 58.0543 175.617 58.1104 175.617 58.1579C175.63 58.9565 175.647 59.7595 175.66 60.5582C175.664 60.6618 175.699 60.7567 175.669 60.8647C175.625 61.0373 175.501 61.1366 175.328 61.1194C175.156 61.1021 175.062 60.9985 175.066 60.8085C175.079 59.7163 175.019 58.6284 175.023 57.5406C175.023 57.3679 175.036 57.1952 174.967 57.0311C174.954 56.9966 174.95 56.9621 174.954 56.9319C174.958 56.9146 174.963 56.9016 174.967 56.8844C174.976 56.8671 174.984 56.8541 174.993 56.8412C174.997 56.8369 175.006 56.8282 175.01 56.8196C175.023 56.8067 175.036 56.7937 175.049 56.7808C175.161 56.6987 175.29 56.6815 175.406 56.7592C175.445 56.7851 175.488 56.8153 175.526 56.8412C175.548 56.8541 175.57 56.8714 175.591 56.8887C175.608 56.9016 175.625 56.9146 175.643 56.9319C175.651 56.9405 175.664 56.9491 175.673 56.9578C175.733 57.0139 175.789 57.0786 175.832 57.1563C176.043 57.5147 176.241 57.8816 176.439 58.2485C176.65 57.8557 176.865 57.4672 177.089 57.083C177.184 56.9232 177.317 56.8196 177.459 56.7246C177.468 56.7203 177.472 56.7117 177.481 56.7074C177.588 56.634 177.73 56.621 177.842 56.6901C177.89 56.716 177.924 56.7549 177.95 56.7937C177.954 56.798 177.954 56.8023 177.954 56.8067C177.958 56.8153 177.958 56.8239 177.963 56.8369C177.963 56.8412 177.967 56.8498 177.967 56.8541C177.971 56.8757 177.976 56.9016 177.976 56.9275C177.98 57.5967 178.023 58.2615 178.04 58.9306C178.044 59.2242 178.053 59.4703 178.075 59.7638C178.105 60.1696 178.143 60.4416 178.169 60.6445C178.199 60.9078 178.143 61.0589 177.933 61.0632Z" fill="#0B83F4"/>
<path d="M180.248 56.9621C180.24 56.9535 180.227 56.9448 180.218 56.9362C180.231 56.9448 180.24 56.9535 180.248 56.9621Z" fill="#0B83F4"/>
<path d="M180.106 60.964C179.852 60.964 179.598 60.9683 179.34 60.964C178.91 60.9554 178.768 60.7956 178.802 60.3683C178.832 59.9495 178.806 59.5351 178.819 59.1163C178.819 59.0559 178.789 59.0214 178.75 58.9825C178.626 58.8616 178.626 58.7192 178.763 58.6199C178.832 58.5681 178.858 58.5163 178.858 58.4386C178.849 57.9939 178.974 57.5665 179.026 57.1262C179.047 56.9449 179.194 56.8283 179.387 56.824C179.641 56.8197 179.895 56.824 180.154 56.824C180.459 56.8197 180.76 56.824 181.062 56.8067C181.217 56.7981 181.273 56.8715 181.294 57.001C181.316 57.1305 181.251 57.2212 181.135 57.2686C181.036 57.3118 180.924 57.3204 180.816 57.3204C180.459 57.3248 180.102 57.3291 179.745 57.3248C179.641 57.3248 179.607 57.3593 179.585 57.4586C179.508 57.778 179.469 58.1061 179.456 58.4342C179.452 58.5292 179.474 58.5681 179.572 58.5637C179.659 58.5594 179.749 58.5594 179.835 58.5335C179.921 58.5076 180.012 58.5119 180.093 58.5594C180.257 58.6458 180.278 58.8228 180.141 58.948C180.033 59.0473 179.9 59.0688 179.758 59.0645C179.418 59.0602 179.422 59.0645 179.418 59.4012C179.413 59.7164 179.435 60.0315 179.405 60.3424C179.392 60.4546 179.443 60.4719 179.538 60.4719C179.99 60.4762 180.438 60.4848 180.89 60.4848C181.002 60.4848 181.088 60.5237 181.126 60.623C181.165 60.7179 181.152 60.8129 181.088 60.8993C181.045 60.9597 180.989 60.9683 180.92 60.9683C180.649 60.9683 180.382 60.9683 180.111 60.9683C180.106 60.9683 180.106 60.964 180.106 60.964Z" fill="#0B83F4"/>
<path d="M173.224 61.1108C173.017 61.1108 172.81 61.1108 172.604 61.1108C172.367 61.1065 172.216 60.9554 172.221 60.7222C172.234 59.9279 172.277 59.1336 172.397 58.3436C172.458 57.9593 172.565 57.5881 172.673 57.2125C172.75 56.9448 172.871 56.8585 173.151 56.8758C173.336 56.8844 173.521 56.9233 173.706 56.9448C173.848 56.9621 173.986 56.9707 174.132 56.9535C174.295 56.9319 174.437 57.0226 174.463 57.1564C174.489 57.2859 174.407 57.3938 174.235 57.4543C174.063 57.5147 173.895 57.4586 173.723 57.4543C173.59 57.4499 173.46 57.4284 173.331 57.4025C173.258 57.3895 173.219 57.4025 173.202 57.4802C173.125 57.8428 173.008 58.2011 172.957 58.5724C172.94 58.676 172.97 58.7235 173.077 58.7407C173.271 58.7753 173.456 58.8314 173.658 58.8357C173.831 58.8357 173.955 58.9479 173.955 59.0818C173.955 59.2156 173.839 59.3192 173.663 59.3322C173.443 59.3494 173.232 59.3019 173.026 59.2458C172.922 59.2199 172.888 59.2415 172.879 59.3494C172.849 59.7207 172.836 60.092 172.823 60.4675C172.819 60.5668 172.849 60.6057 172.953 60.6014C173.206 60.5927 173.46 60.5927 173.719 60.5927C173.783 60.5927 173.843 60.5755 173.904 60.5539C174.011 60.515 174.115 60.5237 174.214 60.5884C174.347 60.6791 174.36 60.8474 174.235 60.951C174.136 61.0331 174.02 61.0892 173.887 61.0892L173.224 61.1108Z" fill="#0B83F4"/>
<path d="M173.258 55.6972C173.353 55.6972 173.409 55.7145 173.46 55.7404C173.719 55.8742 173.973 56.0037 174.231 56.1375C174.386 56.2196 174.442 56.3318 174.399 56.457C174.356 56.5822 174.201 56.6513 174.046 56.6254C173.951 56.6081 173.878 56.5477 173.796 56.5045C173.585 56.3922 173.37 56.2886 173.159 56.1721C173.047 56.1116 172.965 56.0253 173.008 55.8872C173.047 55.749 173.159 55.7015 173.258 55.6972Z" fill="#0B83F4"/>
<path d="M198.64 69.2354C198.765 68.4454 198.817 67.6597 198.903 66.8783C198.946 66.4898 198.955 66.1012 198.95 65.7084C198.95 65.5141 198.95 65.3199 198.963 65.1256C198.985 64.8018 199.153 64.6421 199.424 64.668C199.686 64.6939 199.772 64.8579 199.777 65.1947C199.785 66.1703 199.695 67.1416 199.605 68.113C199.544 68.7692 199.415 69.4167 199.394 70.0772C199.385 70.3362 199.243 70.5003 199.011 70.5953C198.787 70.6859 198.602 70.5953 198.447 70.4398C198.158 70.1549 198.008 69.7793 197.823 69.434C197.384 68.6181 197.082 67.7331 196.639 66.9172C196.561 66.7747 196.48 66.6279 196.363 66.4984C196.333 66.9431 196.299 67.392 196.277 67.8367C196.26 68.2511 196.26 68.6699 196.251 69.0886C196.243 69.5117 196.161 69.9304 196.152 70.3535C196.148 70.6686 196.01 70.7464 195.619 70.7161C195.408 70.6989 195.326 70.5737 195.348 70.2931C195.451 68.6569 195.528 67.0164 195.546 65.3803C195.546 65.294 195.541 65.2076 195.533 65.117C195.511 64.8925 195.602 64.7371 195.791 64.6723C195.985 64.6032 196.2 64.668 196.307 64.8363C196.777 65.5746 197.22 66.3257 197.62 67.1028C197.956 67.7547 198.175 68.4626 198.537 69.1016C198.559 69.1447 198.563 69.2052 198.64 69.2354Z" fill="#0B83F4"/>
<path d="M179.891 67.8755C179.964 68.6267 179.65 69.2786 179.172 69.8614C178.819 70.2888 178.341 70.5132 177.799 70.5996C177.296 70.6816 176.783 70.7032 176.275 70.7205C176.004 70.7291 175.845 70.5435 175.854 70.2758C175.914 68.821 176.056 67.3661 175.961 65.907C175.953 65.7386 175.953 65.5703 175.953 65.4019C175.961 65.0911 176.194 64.8968 176.495 64.9875C176.693 65.0436 176.891 65.0479 177.089 65.0565C177.653 65.0824 178.195 65.2076 178.699 65.4623C179.499 65.8724 179.809 66.5891 179.878 67.4438C179.9 67.5734 179.891 67.7072 179.891 67.8755ZM176.714 69.3217C176.714 69.4944 176.727 69.6714 176.71 69.8441C176.697 69.9909 176.757 70.0211 176.882 70.0038C177.11 69.9779 177.334 69.9564 177.562 69.9305C178.053 69.8743 178.423 69.6369 178.699 69.2225C179.159 68.5317 179.155 67.7763 178.996 67.0121C178.914 66.6236 178.72 66.2739 178.346 66.084C177.898 65.8509 177.42 65.7386 176.912 65.7386C176.788 65.7386 176.77 65.7947 176.779 65.8983C176.792 66.1056 176.801 66.3128 176.805 66.52C176.822 67.4568 176.788 68.3893 176.714 69.3217Z" fill="#0B83F4"/>
<path d="M190.617 67.8453C190.583 67.3704 190.678 66.9215 190.871 66.4898C191.099 65.9804 191.495 65.6177 191.939 65.3112C192.249 65.0954 192.602 65.0738 192.963 65.1558C193.14 65.1947 193.312 65.2465 193.488 65.294C193.583 65.3199 193.656 65.376 193.712 65.458C194.332 66.4121 194.543 67.4654 194.358 68.5792C194.259 69.175 194.065 69.7491 193.639 70.2197C192.967 70.9579 192.141 70.8111 191.517 70.2413C190.914 69.693 190.673 68.9634 190.617 68.1648C190.609 68.0568 190.617 67.9489 190.617 67.8453ZM193.591 67.8712C193.643 67.4136 193.492 66.9603 193.372 66.507C193.32 66.3128 193.217 66.1358 193.075 65.9847C192.907 65.799 192.567 65.73 192.378 65.8854C192.042 66.1617 191.715 66.4466 191.56 66.8826C191.401 67.3273 191.401 67.7849 191.435 68.2382C191.478 68.821 191.68 69.3563 192.107 69.775C192.438 70.1031 192.726 70.0902 193.036 69.7491C193.131 69.6455 193.204 69.5246 193.26 69.3908C193.462 68.9159 193.63 68.4281 193.591 67.8712Z" fill="#0B83F4"/>
<path d="M184.385 67.9921C184.38 67.1201 184.372 66.3171 184.428 65.5185C184.436 65.3889 184.398 65.3587 184.273 65.3587C183.933 65.363 183.593 65.3026 183.248 65.3069C183.012 65.3112 182.848 65.1558 182.848 64.9659C182.848 64.7802 183.012 64.6421 183.248 64.6205C183.657 64.5903 184.066 64.6853 184.475 64.668C185.245 64.6378 186.016 64.573 186.791 64.5817C186.911 64.5817 187.027 64.5428 187.148 64.5255C187.303 64.4996 187.445 64.5212 187.561 64.6335C187.746 64.8105 187.677 65.0781 187.415 65.1774C187.178 65.2638 186.928 65.2724 186.679 65.2767C186.309 65.281 185.938 65.2767 185.573 65.2853C185.297 65.294 185.245 65.3501 185.233 65.6221C185.215 65.9717 185.198 66.3214 185.198 66.6711C185.194 67.8799 185.202 69.093 185.202 70.3017C185.202 70.5521 185.035 70.7162 184.781 70.7118C184.535 70.7075 184.359 70.5392 184.372 70.3104C184.415 69.5203 184.363 68.7174 184.385 67.9921Z" fill="#0B83F4"/>
<path d="M173.151 70.7205C172.854 70.7205 172.561 70.7248 172.264 70.7205C171.924 70.7162 171.709 70.496 171.713 70.1636C171.73 69.0239 171.795 67.8885 171.967 66.7574C172.053 66.2092 172.208 65.6739 172.363 65.1386C172.475 64.7543 172.647 64.6335 173.043 64.6551C173.31 64.668 173.572 64.7241 173.835 64.7543C174.037 64.7802 174.24 64.7932 174.442 64.7673C174.679 64.7371 174.877 64.8666 174.915 65.0565C174.954 65.2422 174.833 65.3976 174.592 65.4839C174.347 65.5703 174.106 65.4926 173.861 65.4839C173.671 65.4796 173.482 65.4451 173.297 65.4105C173.194 65.3933 173.138 65.4105 173.116 65.5228C173.004 66.0451 172.841 66.5545 172.763 67.0855C172.742 67.2366 172.78 67.3014 172.935 67.3273C173.211 67.3791 173.478 67.4611 173.766 67.4611C174.016 67.4611 174.188 67.6208 174.192 67.8151C174.196 68.0094 174.024 68.1562 173.775 68.1777C173.46 68.2036 173.159 68.1346 172.862 68.0526C172.716 68.0137 172.664 68.0482 172.656 68.2036C172.612 68.7346 172.591 69.27 172.574 69.8053C172.569 69.952 172.612 70.0038 172.763 69.9952C173.129 69.9823 173.495 69.9866 173.861 69.9866C173.955 69.9866 174.042 69.965 174.128 69.9305C174.283 69.8743 174.433 69.8873 174.571 69.9779C174.76 70.1075 174.778 70.3492 174.601 70.5003C174.459 70.6212 174.295 70.6989 174.102 70.6989L173.151 70.7205Z" fill="#0B83F4"/>
<path d="M174.476 62.9671C174.343 62.9628 174.261 62.9887 174.188 63.0275C173.822 63.2175 173.452 63.4031 173.086 63.5974C172.866 63.7139 172.785 63.878 172.845 64.055C172.909 64.2363 173.129 64.3356 173.353 64.2924C173.491 64.2665 173.594 64.1802 173.71 64.1154C174.016 63.9557 174.321 63.8046 174.623 63.6405C174.782 63.5542 174.898 63.429 174.838 63.2347C174.778 63.0405 174.618 62.9757 174.476 62.9671Z" fill="#0B83F4"/>
<path d="M181.806 66.0667C181.656 67.3748 181.686 68.7994 181.673 70.224C181.669 70.5953 181.419 70.7982 181.105 70.6946C180.928 70.6384 180.804 70.5132 180.829 70.3233C180.894 69.8527 180.881 69.3822 180.864 68.9159C180.825 67.6899 181.014 66.4725 180.993 65.2508C180.993 65.1558 180.984 65.0608 180.971 64.9702C180.937 64.7457 181.023 64.5946 181.225 64.5298C181.432 64.4651 181.652 64.5514 181.742 64.7371C181.789 64.8363 181.811 64.94 181.806 65.0522C181.806 65.3458 181.806 65.6479 181.806 66.0667Z" fill="#0B83F4"/>
<path d="M181.509 63.9298C181.29 63.9254 181.113 63.7743 181.113 63.5844C181.113 63.3988 181.294 63.2477 181.514 63.2433C181.742 63.2433 181.927 63.4031 181.918 63.5973C181.914 63.7873 181.729 63.9341 181.509 63.9298Z" fill="#0B83F4"/>
<path d="M189.567 66.0667C189.416 67.3748 189.447 68.7994 189.434 70.224C189.429 70.5953 189.18 70.7982 188.865 70.6946C188.689 70.6384 188.564 70.5132 188.59 70.3233C188.655 69.8527 188.642 69.3822 188.624 68.9159C188.586 67.6899 188.775 66.4725 188.754 65.2508C188.754 65.1558 188.745 65.0608 188.732 64.9702C188.698 64.7457 188.784 64.5946 188.986 64.5298C189.193 64.4651 189.412 64.5514 189.502 64.7371C189.55 64.8363 189.571 64.94 189.567 65.0522C189.567 65.3458 189.567 65.6479 189.567 66.0667Z" fill="#0B83F4"/>
<path d="M189.274 63.9298C189.055 63.9254 188.878 63.7743 188.878 63.5844C188.878 63.3988 189.059 63.2477 189.279 63.2433C189.507 63.2433 189.692 63.4031 189.683 63.5973C189.675 63.7873 189.494 63.9341 189.274 63.9298Z" fill="#0B83F4"/>
<path d="M168.82 71.2903C167.064 70.9061 165.312 70.6643 163.522 70.5607C163.178 70.5391 162.807 70.1938 162.954 69.8096C164.017 67.0812 165.597 64.6766 167.129 62.1943C167.774 61.1496 169.681 58.8443 168.239 57.8169C167.241 57.1089 165.803 57.7262 165.282 58.6889C164.921 59.3537 163.901 58.7623 164.267 58.0932C165.334 56.1289 168.816 55.5332 169.819 57.9248C170.499 59.5394 169.105 61.2316 168.321 62.5095C166.931 64.7846 165.433 66.9862 164.374 69.4383C165.975 69.5678 167.555 69.8053 169.135 70.1506C169.871 70.3147 169.552 71.45 168.82 71.2903Z" fill="#0B83F4"/>
</g>
<defs>
<clipPath id="clip0">
<rect width="45.1566" height="34.6322" fill="white" transform="translate(154.742 46.4578)"/>
</clipPath>
</defs>
</svg>
